<svg xmlns="http://www.w3.org/2000/svg" viewBox="0 0 48 48"><path d="M2 42 H46" fill="none" stroke="#82878c" stroke-width="1" stroke-dasharray="0.1 4" stroke-linecap="round"/><g fill="none" stroke="#1c2024" stroke-linecap="butt"><path d="M2.4 41.5 L2.8 41.5 L3.3 41.5 L3.7 41.4 L4.1 41.4 L4.6 41.3 L5 41.3" stroke-opacity="0.45" stroke-width="1.57"/><path d="M5 41.3 L5.4 41.3 L5.9 41.2 L6.3 41.1 L6.7 41.1 L7.2 41 L7.6 40.9" stroke-opacity="0.45" stroke-width="1.58"/><path d="M7.6 40.9 L8 40.9 L8.4 40.8 L8.9 40.7 L9.3 40.6 L9.7 40.5 L10.2 40.3" stroke-opacity="0.46" stroke-width="1.59"/><path d="M10.2 40.3 L10.6 40.2 L11 40.1 L11.5 39.9 L11.9 39.7 L12.3 39.5 L12.8 39.3" stroke-opacity="0.47" stroke-width="1.62"/><path d="M12.8 39.3 L13.2 39 L13.6 38.8 L14.1 38.5 L14.5 38.1 L14.9 37.7 L15.4 37.3" stroke-opacity="0.50" stroke-width="1.66"/><path d="M15.4 37.3 L15.8 36.8 L16.2 36.3 L16.7 35.7 L17.1 35 L17.5 34.2 L18 33.4" stroke-opacity="0.54" stroke-width="1.75"/><path d="M18 33.4 L18.4 32.4 L18.8 31.3 L19.2 30 L19.7 28.5 L20.1 26.8 L20.5 24.9" stroke-opacity="0.63" stroke-width="1.94"/><path d="M20.5 24.9 L21 22.7 L21.4 20.3 L21.8 17.7 L22.3 15 L22.7 12.4 L23.1 10.1" stroke-opacity="0.82" stroke-width="2.34"/><path d="M23.1 10.1 L23.6 8.6 L24 8 L24.4 8.6 L24.9 10.1 L25.3 12.4 L25.7 15" stroke-opacity="0.95" stroke-width="2.63"/><path d="M25.7 15 L26.2 17.7 L26.6 20.3 L27 22.7 L27.5 24.9 L27.9 26.8 L28.3 28.5" stroke-opacity="0.74" stroke-width="2.17"/><path d="M28.3 28.5 L28.8 30 L29.2 31.3 L29.6 32.4 L30 33.4 L30.5 34.2 L30.9 35" stroke-opacity="0.59" stroke-width="1.86"/><path d="M30.9 35 L31.3 35.7 L31.8 36.3 L32.2 36.8 L32.6 37.3 L33.1 37.7 L33.5 38.1" stroke-opacity="0.52" stroke-width="1.72"/><path d="M33.5 38.1 L33.9 38.5 L34.4 38.8 L34.8 39 L35.2 39.3 L35.7 39.5 L36.1 39.7" stroke-opacity="0.49" stroke-width="1.65"/><path d="M36.1 39.7 L36.5 39.9 L37 40.1 L37.4 40.2 L37.8 40.3 L38.3 40.5 L38.7 40.6" stroke-opacity="0.47" stroke-width="1.61"/><path d="M38.7 40.6 L39.1 40.7 L39.6 40.8 L40 40.9 L40.4 40.9 L40.8 41 L41.3 41.1" stroke-opacity="0.46" stroke-width="1.59"/><path d="M41.3 41.1 L41.7 41.1 L42.1 41.2 L42.6 41.3 L43 41.3 L43.4 41.3 L43.9 41.4" stroke-opacity="0.45" stroke-width="1.57"/></g><circle cx="24" cy="42" r="2.4" fill="#ee6d18"/></svg>
