<svg xmlns="http://www.w3.org/2000/svg" viewBox="0 0 880 268" width="880" height="268" role="img" aria-label="Claude Code, the Gemini CLI and Codex each read the skill layer rendered for this domain, and all three drive the same lensing server."><title>three front doors, one lab</title><style>@keyframes l1{0%,5.208%{opacity:0}7.812%,24.479%{opacity:1}30.729%,100%{opacity:0}}@keyframes f2{0%,7.812%{opacity:0}9.688%,21.354%{opacity:1}23.646%,100%{opacity:0}}@keyframes l3{0%,31.250%{opacity:0}33.854%,50.521%{opacity:1}56.771%,100%{opacity:0}}@keyframes f4{0%,33.854%{opacity:0}35.729%,47.396%{opacity:1}49.687%,100%{opacity:0}}@keyframes l5{0%,57.292%{opacity:0}59.896%,76.562%{opacity:1}82.812%,100%{opacity:0}}@keyframes f6{0%,59.896%{opacity:0}61.771%,73.438%{opacity:1}75.729%,100%{opacity:0}}@keyframes f7{0%,21.875%{opacity:0}23.750%,29.167%{opacity:1}31.458%,100%{opacity:0}}@keyframes f8{0%,47.917%{opacity:0}49.792%,55.208%{opacity:1}57.500%,100%{opacity:0}}@keyframes f9{0%,73.958%{opacity:0}75.833%,81.250%{opacity:1}83.542%,100%{opacity:0}}.l1{opacity:0;animation:l1 9.6s linear infinite}.f2{opacity:0;animation:f2 9.6s linear infinite}.l3{opacity:0;animation:l3 9.6s linear infinite}.f4{opacity:0;animation:f4 9.6s linear infinite}.l5{opacity:0;animation:l5 9.6s linear infinite}.f6{opacity:0;animation:f6 9.6s linear infinite}.f7{opacity:0;animation:f7 9.6s linear infinite}.f8{opacity:0;animation:f8 9.6s linear infinite}.f9{opacity:0;animation:f9 9.6s linear infinite}@media (prefers-reduced-motion:reduce){*{animation:none!important}[class^=f]{opacity:1!important}[class^=l]{display:none!important}[class^=t]{transform:none!important;opacity:0!important}[class^=g]{transform:scaleX(1)!important}[class^=d]{stroke-dashoffset:0!important}.pm{display:none!important}}</style><defs><path id="g0" d="M242 0V267L26 730H147L269 465Q282 437 290.5 411.0Q299 385 302 370Q305 385 313.5 411.0Q322 437 334 465L453 730H574L358 267V0Z"/><path id="g1" d="M300 -10Q231 -10 180.5 16.0Q130 42 103.0 90.5Q76 139 76 204V526Q76 592 103.0 640.0Q130 688 180.5 714.0Q231 740 300 740Q370 740 420.0 714.0Q470 688 497.0 640.0Q524 592 524 526V204Q524 139 497.0 90.5Q470 42 420.0 16.0Q370 -10 300 -10ZM300 93Q353 93 380.5 122.0Q408 151 408 204V526Q408 580 380.5 608.5Q353 637 300 637Q247 637 219.5 608.5Q192 580 192 526V204Q192 151 220.0 122.0Q248 93 300 93Z"/><path id="g2" d="M300 -10Q194 -10 135.5 48.0Q77 106 77 206V730H193V207Q193 153 220.0 122.5Q247 92 300 92Q352 92 379.5 122.5Q407 153 407 207V730H523V206Q523 106 465.0 48.0Q407 -10 300 -10Z"/><path id="g3" d="M80 0V730H310Q381 730 433.5 703.5Q486 677 515.0 628.5Q544 580 544 515Q544 442 507.0 387.5Q470 333 407 311L554 0H423L292 295H196V0ZM196 398H310Q363 398 394.5 428.5Q426 459 426 512Q426 565 394.5 596.0Q363 627 310 627H196Z"/><path id="g4" d="M304 -10Q235 -10 183.5 16.0Q132 42 104.0 90.5Q76 139 76 204V526Q76 592 104.0 640.0Q132 688 183.5 714.0Q235 740 304 740Q374 740 424.5 713.5Q475 687 503.0 639.5Q531 592 531 526H415Q415 580 386.0 608.5Q357 637 304 637Q251 637 221.5 608.5Q192 580 192 526V204Q192 151 221.5 122.0Q251 93 304 93Q357 93 386.0 122.0Q415 151 415 204H531Q531 140 503.0 91.5Q475 43 424.5 16.5Q374 -10 304 -10Z"/><path id="g5" d="M79 0V730H289Q363 730 416.5 702.0Q470 674 500.0 623.5Q530 573 530 504V227Q530 158 500.0 107.0Q470 56 416.5 28.0Q363 0 289 0ZM196 107H289Q347 107 380.0 139.0Q413 171 413 227V504Q413 559 380.0 591.0Q347 623 289 623H196Z"/><path id="g6" d="M94 0V103H241V627H94V730H506V627H359V103H506V0Z"/><path id="g7" d="M77 0V730H221L429 132Q427 162 423.5 203.5Q420 245 418.0 289.5Q416 334 416 369V730H523V0H379L172 598Q175 571 177.5 531.0Q180 491 182.0 448.5Q184 406 184 370V0Z"/><path id="g8" d="M304 -10Q235 -10 183.5 16.0Q132 42 104.0 90.5Q76 139 76 204V526Q76 592 104.0 640.0Q132 688 183.5 714.0Q235 740 304 740Q374 740 424.5 713.5Q475 687 503.0 639.5Q531 592 531 526H415Q415 580 386.0 608.5Q357 637 304 637Q251 637 221.5 608.5Q192 580 192 526V204Q192 151 221.5 121.5Q251 92 304 92Q357 92 386.0 121.5Q415 151 415 205V282H284V384H531V204Q531 139 503.0 91.0Q475 43 424.5 16.5Q374 -10 304 -10Z"/><path id="g9" d="M39 0 224 730H376L561 0H443L400 181H200L158 0ZM221 277H378L332 480Q320 532 311.5 573.0Q303 614 300 630Q297 614 289.0 573.5Q281 533 269 481Z"/><path id="g10" d="M91 0V730H524V628H206V429H489V327H206V102H524V0Z"/><path id="g11" d="M242 0V623H48V731H552V623H358V0Z"/><path id="g12" d="M302 -10Q228 -10 174.0 15.0Q120 40 90.5 86.0Q61 132 61 194H177Q177 147 211.0 120.0Q245 93 304 93Q359 93 391.0 119.5Q423 146 423 193Q423 232 401.0 260.5Q379 289 338 299L250 324Q167 347 122.0 403.5Q77 460 77 538Q77 600 104.5 645.0Q132 690 182.5 715.5Q233 741 302 741Q406 741 467.0 686.5Q528 632 529 541H412Q412 586 383.0 612.0Q354 638 301 638Q250 638 221.5 613.5Q193 589 193 546Q193 506 214.5 478.0Q236 450 276 438L367 412Q450 390 494.5 334.0Q539 278 539 197Q539 135 509.5 88.5Q480 42 427.0 16.0Q374 -10 302 -10Z"/><path id="g13" d="M80 0V730H197V430H288L432 730H558L391 380L567 0H436L287 325H197V0Z"/><path id="g14" d="M106 0V730H223V108H537V0Z"/><path id="g15" d="M84 0V731H532V623H198V416H506V308H200V0Z"/><path id="g16" d="M81 0V730H198V432H402V730H519V0H402V324H198V0Z"/><path id="g17" d="M61 0V730H202L274 497Q285 463 292.0 433.5Q299 404 302 390Q305 404 312.0 433.5Q319 463 329 497L398 730H539V0H429V236Q429 285 432.0 343.0Q435 401 439.5 460.0Q444 519 449.5 572.5Q455 626 459 665L356 316H246L141 665Q146 627 151.0 575.5Q156 524 160.5 465.5Q165 407 168.0 348.0Q171 289 171 236V0Z"/><path id="g18" d="M81 0V730H300Q405 730 466.0 680.0Q527 630 527 542Q527 493 505.0 456.5Q483 420 445.0 400.0Q407 380 358 380V387Q412 388 453.5 367.0Q495 346 519.0 305.0Q543 264 543 207Q543 144 515.0 97.0Q487 50 435.5 25.0Q384 0 313 0ZM194 99H305Q361 99 394.0 129.0Q427 159 427 212Q427 266 394.0 298.5Q361 331 305 331H194ZM194 427H299Q351 427 380.5 454.5Q410 482 410 529Q410 577 380.5 604.0Q351 631 300 631H194Z"/><path id="g19" d="M784.7999267578125 -20Q589.1201171875 -20 434.9403076171875 70.88006591796875Q280.760498046875 161.7601318359375 192.0206298828125 332.900146484375Q103.28076171875 504.0401611328125 103.28076171875 744Q103.28076171875 985.31982421875 192.56060791015625 1156.6398315429688Q281.8404541015625 1327.9598388671875 436.20025634765625 1418.9799194335938Q590.56005859375 1510 784.7999267578125 1510Q907.1595458984375 1510 1013.779296875 1475.3800659179688Q1120.3990478515625 1440.7601318359375 1203.638916015625 1374.2002563476562Q1286.8787841796875 1307.640380859375 1340.9187622070312 1211.9205932617188Q1394.958740234375 1116.2008056640625 1412.798828125 994.0010986328125H1143.60205078125Q1131.201904296875 1060.5615234375 1099.5416259765625 1111.7218017578125Q1067.88134765625 1162.882080078125 1020.8410034179688 1198.562255859375Q973.8006591796875 1234.242431640625 914.9003295898438 1252.4425048828125Q856 1270.642578125 789.1197509765625 1270.642578125Q666.999267578125 1270.642578125 572.4987182617188 1209.3023071289062Q477.9981689453125 1147.9620361328125 424.7177734375 1030.50146484375Q371.4373779296875 913.0408935546875 371.4373779296875 744Q371.4373779296875 573.439208984375 425.39776611328125 456.15863037109375Q479.358154296875 338.8780517578125 573.4987182617188 279.11773681640625Q667.6392822265625 219.357421875 788.3997802734375 219.357421875Q855.280029296875 219.357421875 914.0003662109375 237.87750244140625Q972.720703125 256.3975830078125 1020.1210327148438 291.75775146484375Q1067.5213623046875 327.117919921875 1099.5416259765625 378.59820556640625Q1131.5618896484375 430.0784912109375 1144.322021484375 495.9989013671875H1413.518798828125Q1398.838623046875 388.838623046875 1348.218505859375 295.5987548828125Q1297.598388671875 202.35888671875 1215.9784545898438 131.1591796875Q1134.3585205078125 59.95947265625 1025.578857421875 19.979736328125Q916.7991943359375 -20 784.7999267578125 -20Z"/><path id="g20" d="M397.757568359375 1490V0H137.8408203125V1490Z"/><path id="g21" d="M450.4808349609375 -23.1201171875Q344.120849609375 -23.1201171875 259.060791015625 15.25994873046875Q174.000732421875 53.6400146484375 124.8006591796875 128.840087890625Q75.6005859375 204.0401611328125 75.6005859375 314.400146484375Q75.6005859375 408.960205078125 111.0806884765625 470.7601318359375Q146.560791015625 532.56005859375 207.36090087890625 569.5799560546875Q268.1610107421875 606.599853515625 344.26104736328125 625.5797729492188Q420.361083984375 644.5596923828125 501.6009521484375 653.1197509765625Q599.4410400390625 663.9598388671875 660.1011352539062 672.039794921875Q720.76123046875 680.1197509765625 749.4613037109375 698.0197143554688Q778.161376953125 715.919677734375 778.161376953125 753.6798095703125V758.9598388671875Q778.161376953125 814.200439453125 755.9412231445312 852.4408569335938Q733.7210693359375 890.6812744140625 690.3607177734375 911.1015014648438Q647.0003662109375 931.521728515625 583.039794921875 931.521728515625Q518.1591796875 931.521728515625 470.518798828125 911.5615234375Q422.87841796875 891.601318359375 392.7781982421875 859.6810913085938Q362.677978515625 827.7608642578125 348.6378173828125 790.560791015625L107.6005859375 840.0010986328125Q140.8809814453125 939.1212158203125 209.921142578125 1003.6409301757812Q278.9613037109375 1068.16064453125 374.70098876953125 1100.080322265625Q470.440673828125 1132 581.9996337890625 1132Q660.6787109375 1132 741.1783447265625 1113.2802124023438Q821.677978515625 1094.5604248046875 888.89794921875 1050.9605712890625Q956.117919921875 1007.3607177734375 997.0980224609375 933.1805419921875Q1038.078125 859.0003662109375 1038.078125 747.4395751953125V0H789.4410400390625V154.159912109375H778.8809814453125Q754.481201171875 106.520263671875 710.5012817382812 66.1002197265625Q666.5213623046875 25.68017578125 602.041259765625 1.280029296875Q537.5611572265625 -23.1201171875 450.4808349609375 -23.1201171875ZM517.119384765625 170.0784912109375Q597.68017578125 170.0784912109375 656.4205932617188 201.8787841796875Q715.1610107421875 233.6790771484375 747.3811645507812 286.45947265625Q779.601318359375 339.2398681640625 779.601318359375 401.1201171875V533.4410400390625Q766.8013916015625 522.9609375 736.64111328125 514.0808715820312Q706.4808349609375 505.2008056640625 668.700439453125 498.28076171875Q630.9200439453125 491.3607177734375 594.69970703125 486.40069580078125Q558.4793701171875 481.440673828125 533.1993408203125 478.0806884765625Q474.6790771484375 470.440673828125 427.898681640625 452.0206298828125Q381.1182861328125 433.6005859375 354.3179931640625 401.140380859375Q327.5177001953125 368.68017578125 327.5177001953125 317.2796630859375Q327.5177001953125 268.999267578125 352.117919921875 236.29901123046875Q376.7181396484375 203.5987548828125 419.3585205078125 186.838623046875Q461.9989013671875 170.0784912109375 517.119384765625 170.0784912109375Z"/><path id="g22" d="M520.8006591796875 -14Q406.000732421875 -14 319.60076904296875 35.19989013671875Q233.2008056640625 84.3997802734375 185.52081298828125 178.759765625Q137.8408203125 273.1197509765625 137.8408203125 407.280029296875V1118H397.757568359375V447.1190185546875Q397.757568359375 334.6783447265625 456.39794921875 270.85797119140625Q515.038330078125 207.03759765625 617.2789306640625 207.03759765625Q686.4793701171875 207.03759765625 740.0797729492188 237.17779541015625Q793.68017578125 267.3179931640625 824.5604248046875 324.91839599609375Q855.440673828125 382.518798828125 855.440673828125 463.119384765625V1118H1115.9974365234375V0H868.92041015625L866.04052734375 276.3997802734375H885.720703125Q838.760498046875 130.1993408203125 746.8603515625 58.09967041015625Q654.960205078125 -14 520.8006591796875 -14Z"/><path id="g23" d="M550.0010986328125 -20.400146484375Q418.2008056640625 -20.400146484375 313.54071044921875 47.53997802734375Q208.880615234375 115.4801025390625 148.880615234375 244.400146484375Q88.880615234375 373.3201904296875 88.880615234375 556.719970703125Q88.880615234375 743.07958984375 150.28057861328125 871.4996337890625Q211.6805419921875 999.919677734375 316.16064453125 1065.9598388671875Q420.6407470703125 1132 549.201171875 1132Q648.841552734375 1132 712.3015747070312 1098.6998901367188Q775.7615966796875 1065.3997802734375 813.1414794921875 1018.9998168945312Q850.5213623046875 972.599853515625 869.601318359375 932.8802490234375H880.721435546875V1490H1140.63818359375V0H886.00146484375V176.9598388671875H869.601318359375Q849.8013916015625 136.6002197265625 811.6015014648438 90.8201904296875Q773.401611328125 45.0401611328125 710.1615600585938 12.32000732421875Q646.9215087890625 -20.400146484375 550.0010986328125 -20.400146484375ZM620.559326171875 193.5177001953125Q705.6400146484375 193.5177001953125 764.8404541015625 239.4580078125Q824.0408935546875 285.3983154296875 854.8211059570312 367.4388427734375Q885.601318359375 449.4793701171875 885.601318359375 558Q885.601318359375 667.2406005859375 855.14111328125 747.861083984375Q824.680908203125 828.4815673828125 765.48046875 873.2818603515625Q706.280029296875 918.0821533203125 620.559326171875 918.0821533203125Q532.9185791015625 918.0821533203125 473.75811767578125 871.36181640625Q414.59765625 824.6414794921875 384.81744384765625 743.3809814453125Q355.0372314453125 662.1204833984375 355.0372314453125 558Q355.0372314453125 453.5994873046875 385.137451171875 371.0589599609375Q415.2376708984375 288.5184326171875 474.7181396484375 241.01806640625Q534.1986083984375 193.5177001953125 620.559326171875 193.5177001953125Z"/><path id="g24" d="M631.599853515625 -22.56005859375Q463.4801025390625 -22.56005859375 341.6602783203125 48.17999267578125Q219.8404541015625 118.9200439453125 154.36053466796875 247.9200439453125Q88.880615234375 376.9200439453125 88.880615234375 552.159912109375Q88.880615234375 724.5198974609375 153.58050537109375 854.9799194335938Q218.2803955078125 985.43994140625 336.64019775390625 1058.719970703125Q455 1132 614.5596923828125 1132Q717.2391357421875 1132 809.4989013671875 1098.900146484375Q901.7586669921875 1065.80029296875 973.1586303710938 997.0604248046875Q1044.55859375 928.320556640625 1085.4786376953125 821.6805419921875Q1126.398681640625 715.04052734375 1126.398681640625 567.6002197265625V486.48046875H211.6005859375V662.95947265625H996.6400146484375L875.2015380859375 610.559326171875Q875.2015380859375 705.43994140625 845.9213256835938 776.9005126953125Q816.64111328125 848.361083984375 759.0806884765625 888.221435546875Q701.520263671875 928.081787109375 615.9996337890625 928.081787109375Q530.47900390625 928.081787109375 470.3585205078125 887.5814208984375Q410.238037109375 847.0810546875 378.7177734375 779.4605712890625Q347.197509765625 711.840087890625 347.197509765625 629.1197509765625V506.880615234375Q347.197509765625 400.8798828125 383.17779541015625 328.059326171875Q419.1580810546875 255.23876953125 484.23858642578125 218.2984619140625Q549.319091796875 181.358154296875 635.1197509765625 181.358154296875Q692.1201171875 181.358154296875 738.7404174804688 197.65826416015625Q785.3607177734375 213.9583740234375 818.9609375 246.338623046875Q852.5611572265625 278.7188720703125 870.3212890625 326.3592529296875L1109.11865234375 276.9193115234375Q1082.398681640625 187.1595458984375 1017.1588134765625 119.73968505859375Q951.9189453125 52.31982421875 854.2991943359375 14.8798828125Q756.679443359375 -22.56005859375 631.599853515625 -22.56005859375Z"/><path id="g25" d="M623.07958984375 -22.56005859375Q460.280029296875 -22.56005859375 340.20025634765625 49.61993408203125Q220.1204833984375 121.7999267578125 154.50054931640625 251.61993408203125Q88.880615234375 381.43994140625 88.880615234375 553.43994140625Q88.880615234375 727.3599853515625 154.50054931640625 857.5Q220.1204833984375 987.6400146484375 340.20025634765625 1059.8200073242188Q460.280029296875 1132 623.07958984375 1132Q786.5191650390625 1132 906.5589599609375 1059.8200073242188Q1026.5987548828125 987.6400146484375 1092.2186889648438 857.5Q1157.838623046875 727.3599853515625 1157.838623046875 553.43994140625Q1157.838623046875 381.43994140625 1092.2186889648438 251.61993408203125Q1026.5987548828125 121.7999267578125 906.5589599609375 49.61993408203125Q786.5191650390625 -22.56005859375 623.07958984375 -22.56005859375ZM623.07958984375 188.4779052734375Q714.1204833984375 188.4779052734375 774.3410034179688 237.478271484375Q834.5615234375 286.4786376953125 864.1617431640625 369.4591064453125Q893.761962890625 452.4395751953125 893.761962890625 554.159912109375Q893.761962890625 656.8802490234375 864.1617431640625 739.9607543945312Q834.5615234375 823.041259765625 774.3410034179688 872.0016479492188Q714.1204833984375 920.9620361328125 623.07958984375 920.9620361328125Q532.3187255859375 920.9620361328125 472.5582275390625 872.0016479492188Q412.7977294921875 823.041259765625 383.197509765625 740.28076171875Q353.5972900390625 657.520263671875 353.5972900390625 554.159912109375Q353.5972900390625 452.4395751953125 383.197509765625 369.4591064453125Q412.7977294921875 286.4786376953125 472.5582275390625 237.478271484375Q532.3187255859375 188.4779052734375 623.07958984375 188.4779052734375Z"/><path id="g26" d="M300 -10Q262 -10 239.5 12.0Q217 34 217 71Q217 110 239.5 133.0Q262 156 300 156Q338 156 360.5 133.0Q383 110 383 71Q383 34 360.5 12.0Q338 -10 300 -10Z"/><path id="g27" d="M304 -10Q238 -10 188.5 15.0Q139 40 112.0 87.5Q85 135 85 200V350Q85 416 112.0 463.0Q139 510 188.5 535.0Q238 560 304 560Q399 560 457.0 509.0Q515 458 518 370H428Q425 423 392.5 451.5Q360 480 304 480Q245 480 210.0 446.5Q175 413 175 351V200Q175 138 210.0 104.0Q245 70 304 70Q360 70 392.5 99.0Q425 128 428 180H518Q515 92 457.0 41.0Q399 -10 304 -10Z"/><path id="g28" d="M375 0Q327 0 291.0 19.0Q255 38 235.0 73.0Q215 108 215 155V648H30V730H305V155Q305 121 324.0 101.5Q343 82 375 82H550V0Z"/><path id="g29" d="M252 -10Q165 -10 115.0 34.5Q65 79 65 155Q65 232 115.0 276.0Q165 320 250 320H420V375Q420 426 389.5 453.5Q359 481 303 481Q254 481 221.0 460.5Q188 440 183 405H93Q102 476 160.0 518.0Q218 560 305 560Q400 560 455.0 511.0Q510 462 510 378V0H422V105H407L422 120Q422 60 375.5 25.0Q329 -10 252 -10ZM274 61Q338 61 379.0 93.0Q420 125 420 175V253H252Q207 253 181.0 228.0Q155 203 155 160Q155 114 186.5 87.5Q218 61 274 61Z"/><path id="g30" d="M299 -10Q204 -10 147.0 46.5Q90 103 90 200V550H180V200Q180 138 212.0 103.5Q244 69 299 69Q355 69 387.5 103.5Q420 138 420 200V550H510V200Q510 103 452.0 46.5Q394 -10 299 -10Z"/><path id="g31" d="M268 -10Q186 -10 135.5 45.0Q85 100 85 194V355Q85 450 135.0 505.0Q185 560 268 560Q336 560 377.0 523.0Q418 486 418 424L400 445H420L418 570V730H508V0H418V105H400L418 126Q418 63 377.0 26.5Q336 -10 268 -10ZM298 68Q354 68 386.0 103.0Q418 138 418 200V350Q418 412 386.0 447.0Q354 482 298 482Q241 482 208.0 448.0Q175 414 175 350V200Q175 136 208.0 102.0Q241 68 298 68Z"/><path id="g32" d="M300 -10Q235 -10 186.5 16.0Q138 42 111.5 89.5Q85 137 85 200V350Q85 414 111.5 461.0Q138 508 186.5 534.0Q235 560 300 560Q365 560 413.5 534.0Q462 508 488.5 461.0Q515 414 515 350V253H173V200Q173 135 206.0 100.5Q239 66 300 66Q352 66 384.0 84.5Q416 103 423 140H513Q504 71 445.5 30.5Q387 -10 300 -10ZM427 313V350Q427 415 394.5 450.0Q362 485 300 485Q239 485 206.0 450.0Q173 415 173 350V321H434Z"/><path id="g33" d="M75 -110 430 830H525L170 -110Z"/><path id="g34" d="M283 -8Q227 -8 185.5 9.5Q144 27 119.5 59.0Q95 91 90 135H180Q186 106 212.5 89.0Q239 72 283 72H325Q378 72 404.0 93.5Q430 115 430 151Q430 186 406.5 206.5Q383 227 337 234L263 246Q182 260 142.5 296.5Q103 333 103 403Q103 477 150.0 517.5Q197 558 291 558H329Q408 558 456.0 521.0Q504 484 514 421H424Q418 447 394.0 462.5Q370 478 329 478H291Q240 478 216.5 459.0Q193 440 193 402Q193 368 213.0 352.0Q233 336 276 329L350 317Q439 303 479.5 265.0Q520 227 520 155Q520 79 471.5 35.5Q423 -8 325 -8Z"/><path id="g35" d="M95 0V730H185V323H291L451 550H554L369 288L557 0H452L292 245H185V0Z"/><path id="g36" d="M85 0V82H280V468H110V550H370V82H555V0ZM315 649Q282 649 263.0 666.0Q244 683 244 712Q244 742 263.0 759.5Q282 777 315 777Q348 777 367.0 759.5Q386 742 386 712Q386 683 367.0 666.0Q348 649 315 649Z"/><path id="g37" d="M300 260Q262 260 239.5 282.0Q217 304 217 341Q217 380 239.5 403.0Q262 426 300 426Q338 426 360.5 403.0Q383 380 383 341Q383 304 360.5 282.0Q338 260 300 260Z"/><path id="g38" d="M161 -180V-98H336Q378 -98 397.5 -79.0Q417 -60 417 -20V50L419 150H401L418 165Q418 105 378.0 70.0Q338 35 271 35Q186 35 137.0 90.5Q88 146 88 240V356Q88 450 137.0 505.0Q186 560 271 560Q338 560 378.0 525.0Q418 490 418 430L401 445H418V550H507V-20Q507 -94 461.5 -137.0Q416 -180 335 -180ZM298 113Q354 113 386.0 148.0Q418 183 418 245V350Q418 412 386.0 447.0Q354 482 298 482Q241 482 209.5 448.0Q178 414 178 350V245Q178 181 209.5 147.0Q241 113 298 113Z"/><path id="g39" d="M92 0V550H182V445H201L182 424Q182 489 221.0 524.5Q260 560 329 560Q412 560 461.0 509.0Q510 458 510 370V0H420V360Q420 419 388.5 450.5Q357 482 303 482Q247 482 214.5 448.0Q182 414 182 350V0Z"/><path id="g40" d="M360 0Q289 0 249.5 38.0Q210 76 210 145V468H55V550H210V705H300V550H520V468H300V145Q300 82 360 82H510V0Z"/><path id="g41" d="M792.9598388671875 -20Q587.4801025390625 -20 432.26031494140625 72.82000732421875Q277.04052734375 165.6400146484375 190.16064453125 336.96002197265625Q103.28076171875 508.280029296875 103.28076171875 743.280029296875Q103.28076171875 983.5198974609375 192.50054931640625 1155.0198974609375Q281.7203369140625 1326.5198974609375 435.840087890625 1418.2599487304688Q589.9598388671875 1510 784.5596923828125 1510Q907.5994873046875 1510 1014.059326171875 1474.1000366210938Q1120.5191650390625 1438.2000732421875 1204.0390625 1371.7601318359375Q1287.5589599609375 1305.3201904296875 1341.0589599609375 1214.3802490234375Q1394.5589599609375 1123.4403076171875 1411.6790771484375 1014.0003662109375H1139.3621826171875Q1121.4019775390625 1073.7608642578125 1089.7017211914062 1121.041259765625Q1058.00146484375 1168.3216552734375 1013.421142578125 1201.9419555664062Q968.8408203125 1235.562255859375 912.3804321289062 1253.1024169921875Q855.9200439453125 1270.642578125 788.07958984375 1270.642578125Q667.879150390625 1270.642578125 573.4786376953125 1209.9822998046875Q479.078125 1149.322021484375 425.25775146484375 1032.0414428710938Q371.4373779296875 914.7608642578125 371.4373779296875 745.43994140625Q371.4373779296875 576.6790771484375 425.03778076171875 459.3585205078125Q478.63818359375 342.0379638671875 573.7787475585938 280.69769287109375Q668.9193115234375 219.357421875 794.3997802734375 219.357421875Q908.1602783203125 219.357421875 991.7407836914062 263.31781005859375Q1075.3212890625 307.2781982421875 1120.5416259765625 388.138916015625Q1165.761962890625 468.9996337890625 1165.761962890625 578.880615234375L1227.4417724609375 568.9605712890625H821.520263671875V778.8787841796875H1425.198974609375V600.3994140625Q1425.198974609375 408.5596923828125 1343.6790771484375 269.49981689453125Q1262.1591796875 130.43994140625 1119.619384765625 55.219970703125Q977.07958984375 -20 792.9598388671875 -20Z"/><path id="g42" d="M137.8408203125 0V1118H381.9580078125L391.9576416015625 849.28076171875H372.9178466796875Q397.3577880859375 948.5604248046875 447.75775146484375 1011.6602783203125Q498.15771484375 1074.7601318359375 565.7376708984375 1105.3001098632812Q633.317626953125 1135.840087890625 707.1175537109375 1135.840087890625Q828.03759765625 1135.840087890625 902.6376342773438 1059.7601318359375Q977.2376708984375 983.68017578125 1007.8773193359375 836.481201171875H976.6776123046875Q999.91748046875 936.320556640625 1055.4373779296875 1002.9003295898438Q1110.957275390625 1069.4801025390625 1187.5372314453125 1102.6600952148438Q1264.1171875 1135.840087890625 1350.957275390625 1135.840087890625Q1451.55712890625 1135.840087890625 1531.9171142578125 1092.0401611328125Q1612.277099609375 1048.240234375 1659.05712890625 963.4202270507812Q1705.837158203125 878.6002197265625 1705.837158203125 754V0H1445.92041015625V714.0814208984375Q1445.92041015625 817.8021240234375 1389.0799560546875 866.0222778320312Q1332.239501953125 914.242431640625 1252.319091796875 914.242431640625Q1189.55859375 914.242431640625 1143.6982421875 887.2422485351562Q1097.837890625 860.2420654296875 1073.1976928710938 812.6217651367188Q1048.5574951171875 765.00146484375 1048.5574951171875 701.921142578125V0H795.1204833984375V725.6016845703125Q795.1204833984375 811.4019775390625 742.1201171875 862.8222045898438Q689.1197509765625 914.242431640625 605.999267578125 914.242431640625Q549.2789306640625 914.242431640625 501.67852783203125 887.8822631835938Q454.078125 861.5220947265625 425.9178466796875 810.7017211914062Q397.757568359375 759.88134765625 397.757568359375 685.28076171875V0Z"/><path id="g43" d="M137.8408203125 0.0V1118.0H397.757568359375V0.0ZM268.0792236328125 1276.1610107421875Q205.919677734375 1276.1610107421875 161.3599853515625 1318.019903239414Q116.80029296875 1359.87879573664 116.80029296875 1418.481245232757Q116.80029296875 1478.2796630859375 161.3599853515625 1519.619384765625Q205.919677734375 1560.9591064453125 268.0792236328125 1560.9591064453125Q330.7759312220982 1560.9591064453125 375.3870500837054 1519.657954624721Q419.9981689453125 1478.3568028041295 419.9981689453125 1418.5000610351562Q419.9981689453125 1359.8404541015625 375.3870500837054 1318.000732421875Q330.7759312220982 1276.1610107421875 268.0792236328125 1276.1610107421875Z"/><path id="g44" d="M397.757568359375 654.880615234375V0H137.8408203125V1118H384.27783203125L387.7977294921875 841.6002197265625H367.4775390625Q413.7977294921875 986.5206298828125 505.057861328125 1059.2603149414062Q596.3179931640625 1132 733.03759765625 1132Q848.197509765625 1132 934.0974731445312 1082.8001098632812Q1019.9974365234375 1033.6002197265625 1067.6774291992188 939.5602416992188Q1115.357421875 845.520263671875 1115.357421875 710.719970703125V0H855.440673828125V670.8809814453125Q855.440673828125 783.3216552734375 797.1203002929688 847.1420288085938Q738.7999267578125 910.96240234375 636.559326171875 910.96240234375Q567.7188720703125 910.96240234375 513.6184692382812 880.8222045898438Q459.51806640625 850.6820068359375 428.6378173828125 793.5816040039062Q397.757568359375 736.481201171875 397.757568359375 654.880615234375Z"/><path id="g45" d="M149.76123046875 0V1490H416.798095703125V224.877685546875H1075.119384765625V0Z"/><path id="g46" d="M416.798095703125 1490V0H149.76123046875V1490Z"/><path id="g47" d="M66 0V550H145V484H163L149 460Q149 506 173.5 533.0Q198 560 240 560Q286 560 311.0 526.0Q336 492 336 430L309 484H351L332 460Q332 506 357.5 533.0Q383 560 425 560Q477 560 505.5 521.0Q534 482 534 418V0H451V419Q451 453 436.5 472.0Q422 491 394 491Q367 491 351.5 472.5Q336 454 336 420V0H264V419Q264 454 248.5 472.5Q233 491 205 491Q177 491 163.0 472.5Q149 454 149 420V0Z"/><path id="g48" d="M49.880615234375 0 485.120849609375 674.6787109375 484.4808349609375 473.3212890625 71.8006591796875 1118H357.757568359375L471.55859375 927.9989013671875Q521.5987548828125 842.5589599609375 560.5587768554688 761.6392822265625Q599.518798828125 680.7196044921875 639.7188720703125 605.159912109375H532.3994140625Q574.3194580078125 680.359619140625 611.4393920898438 761.4592895507812Q648.559326171875 842.5589599609375 700.3194580078125 927.9989013671875L817.8404541015625 1118H1098.357421875L680.077392578125 468.5611572265625V666.3585205078125L1114.91748046875 0H830.6805419921875L693.3194580078125 224.0010986328125Q642.83935546875 308.52099609375 603.619384765625 388.56060791015625Q564.3994140625 468.6002197265625 523.7593994140625 542.2398681640625H631.7188720703125Q592.1588134765625 468.6002197265625 555.7188720703125 388.56060791015625Q519.2789306640625 308.52099609375 468.8787841796875 224.0010986328125L331.317626953125 0Z"/><path id="g49" d="M654.877685546875 1118V914.322021484375H20V1118ZM178.640380859375 1384H438.55712890625V314.8389892578125Q438.55712890625 254.2384033203125 464.55731201171875 225.858154296875Q490.5574951171875 197.4779052734375 550.39794921875 197.4779052734375Q567.7579345703125 197.4779052734375 597.1378173828125 201.65789794921875Q626.5177001953125 205.837890625 644.557861328125 209.837890625L685.5177001953125 9.2398681640625Q642.75830078125 -4 598.0786743164062 -9.53997802734375Q553.3990478515625 -15.0799560546875 511.559326171875 -15.0799560546875Q351.0799560546875 -15.0799560546875 264.86016845703125 64.83990478515625Q178.640380859375 144.759765625 178.640380859375 292.559326171875Z"/><path id="g50" d="M137.8408203125 0V1118H389.59765625V930.880615234375H401.59765625Q432.2376708984375 1028.1201171875 507.057861328125 1080.7000732421875Q581.8780517578125 1133.280029296875 677.918212890625 1133.280029296875Q700.078125 1133.280029296875 727.0381469726562 1131.2000732421875Q753.9981689453125 1129.1201171875 772.8780517578125 1125.6002197265625V886.642578125Q756.9583740234375 891.8824462890625 720.8185424804688 896.0624389648438Q684.6787109375 900.242431640625 650.4786376953125 900.242431640625Q578.038330078125 900.242431640625 520.4780883789062 869.2623291015625Q462.9178466796875 838.2822265625 430.33770751953125 783.7420654296875Q397.757568359375 729.201904296875 397.757568359375 657.521728515625V0Z"/><path id="g51" d="M622.7196044921875 -22.56005859375Q459.9200439453125 -22.56005859375 340.020263671875 49.61993408203125Q220.1204833984375 121.7999267578125 154.50054931640625 251.61993408203125Q88.880615234375 381.43994140625 88.880615234375 553.43994140625Q88.880615234375 727.3599853515625 154.50054931640625 857.5Q220.1204833984375 987.6400146484375 340.020263671875 1059.8200073242188Q459.9200439453125 1132 622.7196044921875 1132Q716.319091796875 1132 796.23876953125 1107.7601318359375Q876.158447265625 1083.520263671875 939.25830078125 1038.260498046875Q1002.358154296875 993.000732421875 1044.63818359375 927.9410400390625Q1086.918212890625 862.88134765625 1105.2384033203125 781.24169921875L861.6812744140625 730.081787109375Q851.481201171875 773.4417724609375 830.6210327148438 808.5418090820312Q809.7608642578125 843.641845703125 779.8406372070312 868.8818969726562Q749.92041015625 894.1219482421875 710.9401245117188 907.5419921875Q671.9598388671875 920.9620361328125 624.8795166015625 920.9620361328125Q534.11865234375 920.9620361328125 473.9981689453125 872.7216186523438Q413.877685546875 824.481201171875 383.73748779296875 741.720703125Q353.5972900390625 658.960205078125 353.5972900390625 554.159912109375Q353.5972900390625 450.9996337890625 383.73748779296875 368.19915771484375Q413.877685546875 285.398681640625 473.9981689453125 236.93829345703125Q534.11865234375 188.4779052734375 624.8795166015625 188.4779052734375Q672.599853515625 188.4779052734375 712.2201538085938 202.39794921875Q751.8404541015625 216.3179931640625 782.5806884765625 242.3780517578125Q813.3209228515625 268.4381103515625 834.1810913085938 305.358154296875Q855.041259765625 342.2781982421875 864.88134765625 387.2781982421875L1107.7984619140625 336.478271484375Q1090.1182861328125 252.4786376953125 1047.5182495117188 186.4189453125Q1004.918212890625 120.3592529296875 941.6783447265625 73.45947265625Q878.4384765625 26.5596923828125 797.6987915039062 1.99981689453125Q716.9591064453125 -22.56005859375 622.7196044921875 -22.56005859375Z"/><path id="g52" d="M375.5980224609375 352.322021484375V667.1182861328125H416.877685546875L820.000732421875 1118H1125.4373779296875L631.116455078125 567.2008056640625H577.27783203125ZM137.8408203125 0V1490H397.757568359375V0ZM838.7210693359375 0 472.6385498046875 509.2015380859375 648.8765869140625 693.439208984375 1151.437744140625 0Z"/><path id="g53" d="M560.6790771484375 -22.56005859375Q432.359619140625 -22.56005859375 333.1400146484375 14.35980224609375Q233.92041015625 51.2796630859375 170.70062255859375 122.13946533203125Q107.4808349609375 192.999267578125 87.8408203125 294.0390625L331.1978759765625 339.7188720703125Q353.7579345703125 257.0784912109375 412.51824951171875 216.77838134765625Q471.278564453125 176.478271484375 565.8787841796875 176.478271484375Q661.9996337890625 176.478271484375 718.3601684570312 214.958740234375Q774.720703125 253.439208984375 774.720703125 309.8397216796875Q774.720703125 358.4801025390625 737.6405639648438 389.96038818359375Q700.5604248046875 421.440673828125 623.68017578125 437.9207763671875L433.3603515625 479.0408935546875Q274.880615234375 513.240966796875 196.9207763671875 591.2608642578125Q118.9609375 669.28076171875 118.9609375 792.320556640625Q118.9609375 895.8802490234375 176.02081298828125 972.0801391601562Q233.0806884765625 1048.280029296875 334.5003662109375 1090.1400146484375Q435.9200439453125 1132 569.679443359375 1132Q696.5589599609375 1132 788.0385131835938 1096.06005859375Q879.51806640625 1060.1201171875 936.1378173828125 995.4802856445312Q992.757568359375 930.8404541015625 1014.877685546875 843.560791015625L783.1204833984375 798.3209228515625Q763.7203369140625 856.52099609375 713.6401977539062 897.0613403320312Q663.56005859375 937.6016845703125 573.1993408203125 937.6016845703125Q490.4786376953125 937.6016845703125 434.95819091796875 901.5012817382812Q379.437744140625 865.40087890625 379.437744140625 808.0003662109375Q379.437744140625 759.31982421875 415.97808837890625 727.3995971679688Q452.5184326171875 695.4793701171875 537.9189453125 676.7991943359375L728.1580810546875 636.7991943359375Q886.997802734375 602.9591064453125 964.1376342773438 527.9990844726562Q1041.2774658203125 453.0390625 1041.2774658203125 334.7991943359375Q1041.2774658203125 228.8795166015625 980.0177001953125 148.419677734375Q918.7579345703125 67.9598388671875 810.4382934570312 22.69989013671875Q702.11865234375 -22.56005859375 560.6790771484375 -22.56005859375Z"/><path id="g54" d="M326.3187255859375 547.4410400390625Q258.7991943359375 547.4410400390625 212.27947998046875 593.6007690429688Q165.759765625 639.760498046875 165.759765625 706.9200439453125Q165.759765625 774.07958984375 212.27947998046875 820.2393188476562Q258.7991943359375 866.3990478515625 326.3187255859375 866.3990478515625Q393.8382568359375 866.3990478515625 440.35797119140625 820.2393188476562Q486.877685546875 774.07958984375 486.877685546875 706.9200439453125Q486.877685546875 639.760498046875 440.35797119140625 593.6007690429688Q393.8382568359375 547.4410400390625 326.3187255859375 547.4410400390625Z"/><path id="g55" d="M149.76123046875 0V1490H416.798095703125V874.078857421875H1110.24169921875V1490H1377.278564453125V0H1110.24169921875V649.201171875H416.798095703125V0Z"/><path id="g56" d="M1056.239501953125 -416.9591064453125Q828.5596923828125 -416.9591064453125 651.3399047851562 -354.69915771484375Q474.1201171875 -292.439208984375 351.76031494140625 -172.59930419921875Q229.4005126953125 -52.7593994140625 166.34063720703125 121.44049072265625Q103.28076171875 295.640380859375 103.28076171875 518.8802490234375Q103.28076171875 733.68017578125 165.3607177734375 907.8999633789062Q227.440673828125 1082.1197509765625 347.72052001953125 1206.739501953125Q468.0003662109375 1331.3592529296875 643.1000366210938 1398.3590698242188Q818.19970703125 1465.35888671875 1043.879150390625 1465.35888671875Q1257.078857421875 1465.35888671875 1423.7384033203125 1400.298828125Q1590.39794921875 1335.23876953125 1706.3775024414062 1219.9388427734375Q1822.3570556640625 1104.638916015625 1882.7367553710938 952.6392822265625Q1943.116455078125 800.6396484375 1943.116455078125 627.4005126953125Q1943.116455078125 508.1610107421875 1924.19677734375 400.48101806640625Q1905.277099609375 292.801025390625 1860.8775024414062 208.88079833984375Q1816.4779052734375 124.9605712890625 1741.13818359375 76.40032958984375Q1665.7984619140625 27.840087890625 1552.6783447265625 27.840087890625Q1492.0386962890625 27.840087890625 1433.0186157226562 44.9200439453125Q1373.99853515625 62 1332.3583374023438 99.17999267578125Q1290.7181396484375 136.3599853515625 1281.358154296875 195.4801025390625H1273.358154296875Q1246.63818359375 124.2803955078125 1171.8984985351562 76.8603515625Q1097.1588134765625 29.4403076171875 980.9189453125 29.4403076171875Q845.3990478515625 29.4403076171875 751.5792236328125 93.46038818359375Q657.7593994140625 157.48046875 609.01953125 269.98046875Q560.2796630859375 382.48046875 560.2796630859375 528.8802490234375Q560.2796630859375 671.8798828125 614.6796264648438 782.19970703125Q669.07958984375 892.51953125 765.8194580078125 955.2794799804688Q862.559326171875 1018.0394287109375 988.0390625 1018.0394287109375Q1085.47900390625 1018.0394287109375 1154.1188354492188 982.8594360351562Q1222.7586669921875 947.679443359375 1251.1986083984375 898.5198974609375H1261.55859375V994.7593994140625H1451.957275390625V325.31982421875Q1451.957275390625 272.8795166015625 1477.53759765625 239.21905517578125Q1503.117919921875 205.55859375 1555.2384033203125 205.55859375Q1621.7586669921875 205.55859375 1659.3187255859375 249.25885009765625Q1696.8787841796875 292.9591064453125 1712.5987548828125 383.45965576171875Q1728.3187255859375 473.960205078125 1728.3187255859375 614.64111328125Q1728.3187255859375 753.4005126953125 1686.458740234375 871.8804321289062Q1644.5987548828125 990.3603515625 1560.5987548828125 1078.6805419921875Q1476.5987548828125 1167.000732421875 1349.8587036132812 1216.1009521484375Q1223.11865234375 1265.201171875 1053.718505859375 1265.201171875Q878.11865234375 1265.201171875 742.9386596679688 1214.6810913085938Q607.7586669921875 1164.1610107421875 515.1986083984375 1068.120849609375Q422.6385498046875 972.0806884765625 375.0784912109375 834.1604614257812Q327.5184326171875 696.240234375 327.5184326171875 521.43994140625Q327.5184326171875 343.919677734375 375.4384765625 206.5394287109375Q423.3585205078125 69.1591796875 518.1986083984375 -24.84100341796875Q613.0386962890625 -118.8411865234375 752.1588134765625 -167.14129638671875Q891.2789306640625 -215.44140625 1073.6790771484375 -215.44140625Q1155.1190185546875 -215.44140625 1230.7190551757812 -202.42132568359375Q1306.319091796875 -189.4012451171875 1367.5790405273438 -171.26123046875Q1428.8389892578125 -153.1212158203125 1465.7586669921875 -138.44140625L1532.877685546875 -323.4395751953125Q1484.3577880859375 -345.679443359375 1408.4379272460938 -367.37933349609375Q1332.51806640625 -389.0792236328125 1241.5584106445312 -403.0191650390625Q1150.5987548828125 -416.9591064453125 1056.239501953125 -416.9591064453125ZM1002.318359375 222.398681640625Q1089.5987548828125 222.398681640625 1145.3189086914062 257.61883544921875Q1201.0390625 292.8389892578125 1227.9990844726562 362.33935546875Q1254.9591064453125 431.8397216796875 1254.9591064453125 534.3603515625Q1254.9591064453125 638.52099609375 1226.5790405273438 700.26123046875Q1198.198974609375 762.00146484375 1142.4788208007812 789.1414794921875Q1086.7586669921875 816.281494140625 1005.5184326171875 816.281494140625Q927.8382568359375 816.281494140625 872.8981323242188 779.541259765625Q817.9580078125 742.801025390625 788.9379272460938 679.3207397460938Q759.9178466796875 615.8404541015625 759.9178466796875 534.7203369140625Q759.9178466796875 448.4801025390625 785.0978393554688 377.37969970703125Q810.27783203125 306.279296875 863.9379272460938 264.3389892578125Q917.5980224609375 222.398681640625 1002.318359375 222.398681640625Z"/><path id="g57" d="M716.7174072265625 1490V0H451.6005859375V1252.08251953125H441.6005859375L93.840087890625 1002.0018310546875V1256.3997802734375L421.43994140625 1490Z"/><path id="g58" d="M675.474476307362 -20Q494.7593994140625 -20 366.9598388671875 70.3599853515625Q239.1602783203125 160.719970703125 171.22052001953125 331.219970703125Q103.28076171875 501.719970703125 103.28076171875 744.1788793190238Q103.28076171875 985.6400146484375 171.5279879410831 1156.7574907841572Q239.7752141634162 1327.8749669198771 367.53402165162373 1418.9374834599384Q495.29282913983127 1510 675.4655063667907 1510Q855.63818359375 1510 983.937744140625 1418.8200073242188Q1112.2373046875 1327.6400146484375 1179.9970703125 1156.6400146484375Q1247.7568359375 985.6400146484375 1247.7568359375 743.9564182383097Q1247.7568359375 502.27282182818175 1180.3170776367188 331.4963962656534Q1112.8773193359375 160.719970703125 985.0777587890625 70.3599853515625Q857.2781982421875 -20 675.474476307362 -20ZM675.5586890968117 204.317626953125Q772.999267578125 204.317626953125 840.7196044921875 267.7579345703125Q908.43994140625 331.1982421875 943.9401245117188 451.73876953125Q979.4403076171875 572.279296875 979.4403076171875 744.0455918123351Q979.4403076171875 916.720703125 943.9401245117188 1038.0812377929688Q908.43994140625 1159.4417724609375 840.647607421875 1223.2420654296875Q772.8552734375 1287.0423583984375 675.6267944335938 1287.0423583984375Q578.3983154296875 1287.0423583984375 510.49798583984375 1222.9220581054688Q442.59765625 1158.8017578125 407.09747314453125 1037.76123046875Q371.5972900390625 916.720703125 371.5972900390625 744.0455918123351Q371.5972900390625 572.279296875 406.91748046875 451.73876953125Q442.2376708984375 331.1982421875 510.1778907569679 267.7579345703125Q578.1181106154983 204.317626953125 675.5586890968117 204.317626953125Z"/><path id="g59" d="M50 0 245 283 62 550H168L277 380Q284 369 290.5 356.0Q297 343 301 335Q304 343 310.5 356.0Q317 369 324 380L434 550H539L356 282L550 0H444L326 180Q319 191 312.5 205.5Q306 220 301 229Q297 220 289.5 205.5Q282 191 274 180L155 0Z"/><path id="g60" d="M92 -180V550H182V445H200L182 424Q182 487 223.5 523.5Q265 560 333 560Q416 560 465.5 505.5Q515 451 515 356V195Q515 132 492.5 86.0Q470 40 429.5 15.0Q389 -10 333 -10Q266 -10 224.0 27.0Q182 64 182 126L200 105H180L182 -20V-180ZM303 68Q360 68 392.5 102.0Q425 136 425 200V350Q425 414 392.5 448.0Q360 482 303 482Q248 482 215.0 447.0Q182 412 182 350V200Q182 138 215.0 103.0Q248 68 303 68Z"/><path id="g61" d="M111 0V550H199V445H220L191 380Q191 469 229.5 514.5Q268 560 344 560Q431 560 482.5 505.5Q534 451 534 358V325H444V350Q444 415 412.5 449.5Q381 484 323 484Q266 484 233.5 449.0Q201 414 201 350V0Z"/><path id="g62" d="M140 290V370H460V290Z"/><path id="g63" d="M300 -8Q234 -8 186.0 17.0Q138 42 111.5 89.5Q85 137 85 202V348Q85 414 111.5 461.0Q138 508 186.0 533.0Q234 558 300 558Q366 558 414.0 533.0Q462 508 488.5 461.0Q515 414 515 349V202Q515 137 488.5 89.5Q462 42 414.0 17.0Q366 -8 300 -8ZM300 72Q359 72 392.0 105.0Q425 138 425 202V348Q425 412 392.0 445.0Q359 478 300 478Q242 478 208.5 445.0Q175 412 175 348V202Q175 138 208.5 105.0Q242 72 300 72Z"/><path id="g64" d="M220 0V413H60V495H220V590Q220 655 261.0 692.5Q302 730 374 730H535V648H374Q343 648 326.5 633.5Q310 619 310 590V495H535V413H310V0Z"/><path id="g65" d="M92 0V730H182V550V445H201L182 424Q182 489 221.0 524.5Q260 560 329 560Q412 560 461.0 509.0Q510 458 510 370V0H420V360Q420 419 388.5 451.5Q357 484 303 484Q247 484 214.5 449.0Q182 414 182 350V0Z"/><path id="g66" d="M123 0 35 550H115L170 160Q173 138 176.5 112.5Q180 87 182 70Q184 87 188.5 112.5Q193 138 196 160L257 550H343L404 160Q407 138 411.5 112.5Q416 87 418 70Q420 87 424.5 112.5Q429 138 432 160L489 550H565L473 0H374L315 380Q311 408 306.0 436.0Q301 464 299 480Q297 464 293.0 436.0Q289 408 284 380L222 0Z"/><path id="g67" d="M619.9996337890625 -442Q485.56005859375 -442 386.24041748046875 -407.9801025390625Q286.9207763671875 -373.960205078125 223.50091552734375 -315.30047607421875Q160.0810546875 -256.6407470703125 131.9207763671875 -183.041259765625L352.437744140625 -104.16064453125Q369.9580078125 -135.440673828125 401.31817626953125 -168.14093017578125Q432.6783447265625 -200.8411865234375 485.43865966796875 -222.5814208984375Q538.198974609375 -244.3216552734375 619.2796630859375 -244.3216552734375Q740.3201904296875 -244.3216552734375 812.9607543945312 -187.88134765625Q885.601318359375 -131.4410400390625 885.601318359375 -11.4403076171875V200.3201904296875H864.281494140625Q844.5615234375 159.6805419921875 807.7216186523438 117.1204833984375Q770.8817138671875 74.5604248046875 708.3616333007812 45.56024169921875Q645.841552734375 16.56005859375 549.361083984375 16.56005859375Q420.7608642578125 16.56005859375 316.28076171875 77.18017578125Q211.8006591796875 137.80029296875 150.34063720703125 259.080322265625Q88.880615234375 380.3603515625 88.880615234375 561.840087890625Q88.880615234375 745.6396484375 150.78057861328125 872.7796630859375Q212.6805419921875 999.919677734375 317.48065185546875 1065.9598388671875Q422.28076171875 1132 551.201171875 1132Q650.2015380859375 1132 714.1615600585938 1099.0198974609375Q778.12158203125 1066.039794921875 816.1814575195312 1019.31982421875Q854.2413330078125 972.599853515625 874.3212890625 932.8802490234375H888.0814208984375V1118H1143.358154296875V-3.4410400390625Q1143.358154296875 -152.120849609375 1075.2982788085938 -249.56060791015625Q1007.2384033203125 -347.0003662109375 888.9987182617188 -394.50018310546875Q770.759033203125 -442 619.9996337890625 -442ZM621.83935546875 221.918212890625Q707.280029296875 221.918212890625 766.3004760742188 262.658447265625Q825.3209228515625 303.398681640625 856.1011352539062 380.27911376953125Q886.88134765625 457.1595458984375 886.88134765625 564.400146484375Q886.88134765625 670.440673828125 856.421142578125 749.7811279296875Q825.9609375 829.12158203125 766.9404907226562 873.6018676757812Q707.9200439453125 918.0821533203125 621.83935546875 918.0821533203125Q534.1986083984375 918.0821533203125 474.7181396484375 871.6818237304688Q415.2376708984375 825.281494140625 385.137451171875 745.6210327148438Q355.0372314453125 665.9605712890625 355.0372314453125 564.400146484375Q355.0372314453125 461.2796630859375 385.45745849609375 384.0792236328125Q415.877685546875 306.8787841796875 475.358154296875 264.39849853515625Q534.838623046875 221.918212890625 621.83935546875 221.918212890625Z"/><path id="g68" d="M811.3194580078125 727.9996337890625V513.0416259765625H141.4801025390625V727.9996337890625Z"/><path id="g69" d="M455.4410400390625 0 38.880615234375 1118H316.8773193359375L521.398681640625 510.0777587890625Q557.23876953125 403.4779052734375 583.018798828125 295.2181396484375Q608.798828125 186.9583740234375 636.35888671875 75.8389892578125H571.4388427734375Q598.638916015625 186.9583740234375 624.2389526367188 295.03814697265625Q649.8389892578125 403.117919921875 684.6790771484375 510.0777587890625L887.760498046875 1118H1163.5972900390625L746.31689453125 0Z"/><path id="g70" d="M326.3187255859375 -16.9598388671875Q258.7991943359375 -16.9598388671875 212.27947998046875 29.19989013671875Q165.759765625 75.359619140625 165.759765625 142.5191650390625Q165.759765625 209.6787109375 212.27947998046875 255.83843994140625Q258.7991943359375 301.9981689453125 326.3187255859375 301.9981689453125Q393.8382568359375 301.9981689453125 440.35797119140625 255.83843994140625Q486.877685546875 209.6787109375 486.877685546875 142.5191650390625Q486.877685546875 75.359619140625 440.35797119140625 29.19989013671875Q393.8382568359375 -16.9598388671875 326.3187255859375 -16.9598388671875ZM326.3187255859375 747.4019775390625Q258.7991943359375 747.4019775390625 212.27947998046875 793.5617065429688Q165.759765625 839.721435546875 165.759765625 906.8809814453125Q165.759765625 974.04052734375 212.27947998046875 1020.2002563476562Q258.7991943359375 1066.3599853515625 326.3187255859375 1066.3599853515625Q393.8382568359375 1066.3599853515625 440.35797119140625 1020.2002563476562Q486.877685546875 974.04052734375 486.877685546875 906.8809814453125Q486.877685546875 839.721435546875 440.35797119140625 793.5617065429688Q393.8382568359375 747.4019775390625 326.3187255859375 747.4019775390625Z"/><path id="g71" d="M654.9591064453125 -20Q493.51953125 -20 368.83990478515625 34.39996337890625Q244.1602783203125 88.7999267578125 173.72052001953125 183.5198974609375Q103.28076171875 278.2398681640625 103.28076171875 398.8798828125Q103.28076171875 492.159912109375 144.16064453125 571.219970703125Q185.04052734375 650.280029296875 255.54034423828125 703.2000732421875Q326.0401611328125 756.1201171875 414.0799560546875 771.1201171875V779.840087890625Q298.6002197265625 806.0401611328125 227.94049072265625 898.5001831054688Q157.28076171875 990.960205078125 157.28076171875 1111.1201171875Q157.28076171875 1226.2000732421875 221.6805419921875 1316.2400512695312Q286.080322265625 1406.280029296875 398.43994140625 1458.1400146484375Q510.799560546875 1510 654.9591064453125 1510Q798.1986083984375 1510 910.7382202148438 1458.1400146484375Q1023.27783203125 1406.280029296875 1087.9976196289062 1316.06005859375Q1152.7174072265625 1225.840087890625 1152.7174072265625 1111.1201171875Q1152.7174072265625 990.6002197265625 1081.377685546875 898.3201904296875Q1010.0379638671875 806.0401611328125 897.1982421875 779.840087890625V771.1201171875Q983.5980224609375 756.1201171875 1054.0978393554688 703.2000732421875Q1124.59765625 650.280029296875 1166.2975463867188 571.219970703125Q1207.9974365234375 492.159912109375 1207.9974365234375 398.8798828125Q1207.9974365234375 278.2398681640625 1136.9176635742188 183.5198974609375Q1065.837890625 88.7999267578125 940.978271484375 34.39996337890625Q816.11865234375 -20 654.9591064453125 -20ZM654.9591064453125 185.6783447265625Q739.19970703125 185.6783447265625 801.3001098632812 214.9384765625Q863.4005126953125 244.1986083984375 897.8607177734375 296.578857421875Q932.3209228515625 348.9591064453125 932.3209228515625 418.239501953125Q932.3209228515625 489.719970703125 896.2606811523438 544.580322265625Q860.200439453125 599.440673828125 797.4600219726562 631.0808715820312Q734.7196044921875 662.7210693359375 654.9591064453125 662.7210693359375Q574.6385498046875 662.7210693359375 511.89813232421875 631.2608642578125Q449.15771484375 599.8006591796875 413.09747314453125 544.9403076171875Q377.0372314453125 490.0799560546875 377.0372314453125 418.239501953125Q377.0372314453125 348.9591064453125 411.17742919921875 296.75885009765625Q445.317626953125 244.55859375 508.05804443359375 215.11846923828125Q570.7984619140625 185.6783447265625 654.9591064453125 185.6783447265625ZM654.9591064453125 865.279296875Q723.8795166015625 865.279296875 777.1398315429688 892.9994506835938Q830.400146484375 920.7196044921875 861.4003295898438 970.5198974609375Q892.4005126953125 1020.3201904296875 892.4005126953125 1084.880615234375Q892.4005126953125 1149.801025390625 862.3603515625 1197.9613037109375Q832.3201904296875 1246.12158203125 778.7398681640625 1273.021728515625Q725.1595458984375 1299.921875 654.9591064453125 1299.921875Q584.4786376953125 1299.921875 530.8983154296875 1273.021728515625Q477.3179931640625 1246.12158203125 447.45782470703125 1197.9613037109375Q417.59765625 1149.801025390625 417.59765625 1084.880615234375Q417.59765625 1020.3201904296875 447.77783203125 970.6998901367188Q477.9580078125 921.07958984375 531.8583374023438 893.179443359375Q585.7586669921875 865.279296875 654.9591064453125 865.279296875Z"/><path id="g72" d="M624.9591064453125 -21.43994140625Q484.6396484375 -21.43994140625 376.10003662109375 33.77984619140625Q267.5604248046875 88.9996337890625 200.6005859375 185.119384765625Q133.6407470703125 281.2391357421875 117.440673828125 403.1190185546875H381.03759765625Q400.7977294921875 316.718505859375 463.5980224609375 263.3179931640625Q526.3983154296875 209.91748046875 624.9591064453125 209.91748046875Q728.51953125 209.91748046875 800.6199340820312 271.15771484375Q872.7203369140625 332.39794921875 910.5606079101562 446.4384765625Q948.40087890625 560.47900390625 948.40087890625 718.8798828125H937.8408203125Q902.16064453125 655.3599853515625 845.6206665039062 609.2400512695312Q789.0806884765625 563.1201171875 717.8807983398438 538.0801391601562Q646.680908203125 513.0401611328125 566.1610107421875 513.0401611328125Q435.64111328125 513.0401611328125 330.4410400390625 575.6401977539062Q225.240966796875 638.240234375 164.2608642578125 748.1203002929688Q103.28076171875 858.0003662109375 103.28076171875 998.48046875Q103.28076171875 1145.400146484375 170.9605712890625 1262.06005859375Q238.640380859375 1378.719970703125 359.7000732421875 1446.0399780273438Q480.759765625 1513.3599853515625 641.679443359375 1511.43994140625Q747.7188720703125 1510.7999267578125 848.5385131835938 1473.780029296875Q949.358154296875 1436.7601318359375 1030.2179565429688 1353.9802856445312Q1111.0777587890625 1271.200439453125 1159.0576782226562 1132.5005493164062Q1207.03759765625 993.8006591796875 1207.03759765625 788.880615234375Q1207.03759765625 597.0003662109375 1166.4777221679688 446.8802490234375Q1125.9178466796875 296.7601318359375 1049.6980590820312 192.16009521484375Q973.478271484375 87.56005859375 865.8185424804688 33.06005859375Q758.1588134765625 -21.43994140625 624.9591064453125 -21.43994140625ZM637.3592529296875 717.9185791015625Q697.07958984375 717.9185791015625 748.3399047851562 740.958740234375Q799.6002197265625 763.9989013671875 837.6604614257812 804.0191650390625Q875.720703125 844.0394287109375 897.3008422851562 895.979736328125Q918.8809814453125 947.9200439453125 918.8809814453125 1006.7203369140625Q918.8809814453125 1083.720703125 882.78076171875 1148.6810913085938Q846.6805419921875 1213.6414794921875 784.18017578125 1253.3017578125Q721.6798095703125 1292.9620361328125 641.1993408203125 1292.9620361328125Q562.35888671875 1292.9620361328125 499.49853515625 1254.581787109375Q436.63818359375 1216.2015380859375 400.0379638671875 1150.6011352539062Q363.437744140625 1085.000732421875 363.437744140625 1004.1602783203125Q363.437744140625 923.9598388671875 399.07794189453125 858.9994506835938Q434.7181396484375 794.0390625 496.4384765625 755.9788208007812Q558.1588134765625 717.9185791015625 637.3592529296875 717.9185791015625Z"/><path id="g73" d="M671.198974609375 -20Q564.8795166015625 -20 463.2398681640625 16.5198974609375Q361.6002197265625 53.039794921875 280.42041015625 136.2796630859375Q199.2406005859375 219.51953125 151.26068115234375 358.49945068359375Q103.28076171875 497.4793701171875 103.28076171875 702.3994140625Q103.28076171875 893.6396484375 143.84063720703125 1043.259765625Q184.4005126953125 1192.8798828125 260.9403076171875 1297.1199340820312Q337.4801025390625 1401.3599853515625 445.13983154296875 1455.6799926757812Q552.799560546875 1510 686.6392822265625 1510Q826.0386962890625 1510 934.3983154296875 1455.1401977539062Q1042.7579345703125 1400.2803955078125 1109.8977661132812 1305.3406372070312Q1177.03759765625 1210.40087890625 1192.877685546875 1089.4410400390625H930.560791015625Q909.880615234375 1174.5615234375 846.9003295898438 1226.60205078125Q783.9200439453125 1278.642578125 686.6392822265625 1278.642578125Q583.078857421875 1278.642578125 510.658447265625 1217.7623291015625Q438.238037109375 1156.882080078125 400.7177734375 1043.5215454101562Q363.197509765625 930.1610107421875 363.197509765625 772.400146484375H373.757568359375Q409.7977294921875 836.56005859375 466.15771484375 882.6799926757812Q522.5177001953125 928.7999267578125 594.2175903320312 953.1998901367188Q665.91748046875 977.599853515625 745.4373779296875 977.599853515625Q876.3172607421875 977.599853515625 980.6973266601562 915.31982421875Q1085.077392578125 853.039794921875 1146.0574951171875 743.3397216796875Q1207.03759765625 633.6396484375 1207.03759765625 492.1595458984375Q1207.03759765625 345.599853515625 1139.997802734375 229.75994873046875Q1072.9580078125 113.9200439453125 952.3983154296875 46.96002197265625Q831.838623046875 -20 671.198974609375 -20ZM669.759033203125 197.0379638671875Q749.3194580078125 197.0379638671875 812.1398315429688 235.73822021484375Q874.960205078125 274.4384765625 911.5604248046875 340.03887939453125Q948.16064453125 405.6392822265625 948.16064453125 487.1197509765625Q948.16064453125 567.3201904296875 912.5204467773438 632.2805786132812Q876.8802490234375 697.240966796875 814.6998901367188 735.3012084960938Q752.51953125 773.3614501953125 672.9591064453125 773.3614501953125Q613.5987548828125 773.3614501953125 562.658447265625 750.6412963867188Q511.7181396484375 727.921142578125 473.4779052734375 687.90087890625Q435.2376708984375 647.880615234375 413.9775390625 595.9403076171875Q392.7174072265625 544 392.7174072265625 485.8397216796875Q392.7174072265625 407.559326171875 428.6776123046875 341.95892333984375Q464.6378173828125 276.3585205078125 527.63818359375 236.6982421875Q590.6385498046875 197.0379638671875 669.759033203125 197.0379638671875Z"/><path id="g74" d="M50 0 240 730H361L550 0H459L411 194H190L142 0ZM208 270H392L336 495Q320 559 311.0 602.0Q302 645 300 658Q298 645 289.0 602.0Q280 559 264 496Z"/><path id="g75" d="M92 0V730H327Q395 730 445.0 703.5Q495 677 522.5 629.0Q550 581 550 515Q550 450 522.5 401.5Q495 353 445.0 326.5Q395 300 327 300H182V0ZM182 381H327Q386 381 421.5 417.5Q457 454 457 515Q457 577 421.5 613.0Q386 649 327 649H182Z"/><path id="g76" d="M105 0V82H254V648H105V730H495V648H346V82H495V0Z"/><path id="g77" d="M304 -10Q238 -10 189.5 15.0Q141 40 114.5 87.5Q88 135 88 200V530Q88 596 114.5 643.0Q141 690 189.5 715.0Q238 740 304 740Q370 740 418.0 714.5Q466 689 492.0 642.0Q518 595 518 530H428Q428 592 395.5 625.5Q363 659 304 659Q245 659 211.5 626.0Q178 593 178 531V200Q178 138 211.5 104.5Q245 71 304 71Q363 71 395.5 104.5Q428 138 428 200H518Q518 136 492.0 88.5Q466 41 418.0 15.5Q370 -10 304 -10Z"/><path id="g78" d="M92 0V730H318Q383 730 432.0 703.5Q481 677 508.0 630.0Q535 583 535 520Q535 446 496.5 393.0Q458 340 392 320L545 0H439L299 310H182V0ZM182 391H318Q374 391 408.0 426.5Q442 462 442 520Q442 579 408.0 614.0Q374 649 318 649H182Z"/><path id="g79" d="M332 -10Q264 -10 223.0 26.5Q182 63 182 126L200 105H182V0H92V730H182V570L180 445H200L182 424Q182 486 223.5 523.0Q265 560 332 560Q415 560 465.0 505.0Q515 450 515 355V194Q515 100 465.0 45.0Q415 -10 332 -10ZM302 68Q359 68 392.0 102.0Q425 136 425 200V350Q425 414 392.0 448.0Q359 482 302 482Q247 482 214.5 447.0Q182 412 182 350V200Q182 138 214.5 103.0Q247 68 302 68Z"/><path id="g80" d="M304 -10Q232 -10 180.5 14.0Q129 38 101.0 83.0Q73 128 72 190H162Q162 135 199.5 103.0Q237 71 304 71Q367 71 402.5 102.0Q438 133 438 188Q438 232 414.5 265.0Q391 298 347 311L248 342Q173 365 132.5 419.0Q92 473 92 546Q92 605 118.5 648.5Q145 692 193.0 716.5Q241 741 306 741Q402 741 460.0 687.5Q518 634 519 545H429Q429 599 396.5 629.5Q364 660 305 660Q247 660 214.5 632.0Q182 604 182 554Q182 509 206.0 476.0Q230 443 275 429L375 397Q448 374 488.0 319.0Q528 264 528 190Q528 130 500.0 85.0Q472 40 421.5 15.0Q371 -10 304 -10Z"/><path id="g81" d="M100 0V730H520V648H189V422H485V341H189V82H520V0Z"/><clipPath id="clip"><rect x="0" y="0" width="880" height="268" rx="16"/></clipPath></defs><rect x="0" y="0" width="880" height="268" rx="16" fill="#1d2732"/><rect x="0.75" y="0.75" width="878.5" height="266.5" rx="15.25" fill="none" stroke="#434e5b" stroke-width="1.5"/><g clip-path="url(#clip)"><g fill="#89939e"><use href="#g0" transform="translate(28.00 34.00) scale(0.01050 -0.01050)"/><use href="#g1" transform="translate(34.30 34.00) scale(0.01050 -0.01050)"/><use href="#g2" transform="translate(40.60 34.00) scale(0.01050 -0.01050)"/><use href="#g3" transform="translate(46.90 34.00) scale(0.01050 -0.01050)"/><use href="#g4" transform="translate(59.50 34.00) scale(0.01050 -0.01050)"/><use href="#g1" transform="translate(65.80 34.00) scale(0.01050 -0.01050)"/><use href="#g5" transform="translate(72.10 34.00) scale(0.01050 -0.01050)"/><use href="#g6" transform="translate(78.40 34.00) scale(0.01050 -0.01050)"/><use href="#g7" transform="translate(84.70 34.00) scale(0.01050 -0.01050)"/><use href="#g8" transform="translate(91.00 34.00) scale(0.01050 -0.01050)"/><use href="#g9" transform="translate(103.60 34.00) scale(0.01050 -0.01050)"/><use href="#g8" transform="translate(109.90 34.00) scale(0.01050 -0.01050)"/><use href="#g10" transform="translate(116.20 34.00) scale(0.01050 -0.01050)"/><use href="#g7" transform="translate(122.50 34.00) scale(0.01050 -0.01050)"/><use href="#g11" transform="translate(128.80 34.00) scale(0.01050 -0.01050)"/></g><g fill="#89939e"><use href="#g12" transform="translate(304.00 34.00) scale(0.01050 -0.01050)"/><use href="#g13" transform="translate(310.30 34.00) scale(0.01050 -0.01050)"/><use href="#g6" transform="translate(316.60 34.00) scale(0.01050 -0.01050)"/><use href="#g14" transform="translate(322.90 34.00) scale(0.01050 -0.01050)"/><use href="#g14" transform="translate(329.20 34.00) scale(0.01050 -0.01050)"/><use href="#g12" transform="translate(335.50 34.00) scale(0.01050 -0.01050)"/><use href="#g3" transform="translate(348.10 34.00) scale(0.01050 -0.01050)"/><use href="#g10" transform="translate(354.40 34.00) scale(0.01050 -0.01050)"/><use href="#g7" transform="translate(360.70 34.00) scale(0.01050 -0.01050)"/><use href="#g5" transform="translate(367.00 34.00) scale(0.01050 -0.01050)"/><use href="#g10" transform="translate(373.30 34.00) scale(0.01050 -0.01050)"/><use href="#g3" transform="translate(379.60 34.00) scale(0.01050 -0.01050)"/><use href="#g10" transform="translate(385.90 34.00) scale(0.01050 -0.01050)"/><use href="#g5" transform="translate(392.20 34.00) scale(0.01050 -0.01050)"/><use href="#g15" transform="translate(404.80 34.00) scale(0.01050 -0.01050)"/><use href="#g1" transform="translate(411.10 34.00) scale(0.01050 -0.01050)"/><use href="#g3" transform="translate(417.40 34.00) scale(0.01050 -0.01050)"/><use href="#g11" transform="translate(430.00 34.00) scale(0.01050 -0.01050)"/><use href="#g16" transform="translate(436.30 34.00) scale(0.01050 -0.01050)"/><use href="#g6" transform="translate(442.60 34.00) scale(0.01050 -0.01050)"/><use href="#g12" transform="translate(448.90 34.00) scale(0.01050 -0.01050)"/><use href="#g5" transform="translate(461.50 34.00) scale(0.01050 -0.01050)"/><use href="#g1" transform="translate(467.80 34.00) scale(0.01050 -0.01050)"/><use href="#g17" transform="translate(474.10 34.00) scale(0.01050 -0.01050)"/><use href="#g9" transform="translate(480.40 34.00) scale(0.01050 -0.01050)"/><use href="#g6" transform="translate(486.70 34.00) scale(0.01050 -0.01050)"/><use href="#g7" transform="translate(493.00 34.00) scale(0.01050 -0.01050)"/></g><g fill="#89939e"><use href="#g11" transform="translate(634.00 34.00) scale(0.01050 -0.01050)"/><use href="#g16" transform="translate(640.30 34.00) scale(0.01050 -0.01050)"/><use href="#g6" transform="translate(646.60 34.00) scale(0.01050 -0.01050)"/><use href="#g12" transform="translate(652.90 34.00) scale(0.01050 -0.01050)"/><use href="#g14" transform="translate(665.50 34.00) scale(0.01050 -0.01050)"/><use href="#g9" transform="translate(671.80 34.00) scale(0.01050 -0.01050)"/><use href="#g18" transform="translate(678.10 34.00) scale(0.01050 -0.01050)"/></g><rect x="28" y="58" width="196" height="52" rx="9" fill="#151f2a" stroke="#333e4a" stroke-width="1.2"/><g fill="#eef2f7"><use href="#g19" transform="translate(44.00 81.00) scale(0.00659 -0.00659)"/><use href="#g20" transform="translate(53.95 81.00) scale(0.00659 -0.00659)"/><use href="#g21" transform="translate(57.48 81.00) scale(0.00659 -0.00659)"/><use href="#g22" transform="translate(65.23 81.00) scale(0.00659 -0.00659)"/><use href="#g23" transform="translate(73.50 81.00) scale(0.00659 -0.00659)"/><use href="#g24" transform="translate(81.92 81.00) scale(0.00659 -0.00659)"/><use href="#g19" transform="translate(93.31 81.00) scale(0.00659 -0.00659)"/><use href="#g25" transform="translate(103.25 81.00) scale(0.00659 -0.00659)"/><use href="#g23" transform="translate(111.47 81.00) scale(0.00659 -0.00659)"/><use href="#g24" transform="translate(119.90 81.00) scale(0.00659 -0.00659)"/></g><g fill="#89939e"><use href="#g26" transform="translate(44.00 97.00) scale(0.01000 -0.01000)"/><use href="#g27" transform="translate(50.00 97.00) scale(0.01000 -0.01000)"/><use href="#g28" transform="translate(56.00 97.00) scale(0.01000 -0.01000)"/><use href="#g29" transform="translate(62.00 97.00) scale(0.01000 -0.01000)"/><use href="#g30" transform="translate(68.00 97.00) scale(0.01000 -0.01000)"/><use href="#g31" transform="translate(74.00 97.00) scale(0.01000 -0.01000)"/><use href="#g32" transform="translate(80.00 97.00) scale(0.01000 -0.01000)"/><use href="#g33" transform="translate(86.00 97.00) scale(0.01000 -0.01000)"/><use href="#g34" transform="translate(92.00 97.00) scale(0.01000 -0.01000)"/><use href="#g35" transform="translate(98.00 97.00) scale(0.01000 -0.01000)"/><use href="#g36" transform="translate(104.00 97.00) scale(0.01000 -0.01000)"/><use href="#g28" transform="translate(110.00 97.00) scale(0.01000 -0.01000)"/><use href="#g28" transform="translate(116.00 97.00) scale(0.01000 -0.01000)"/><use href="#g34" transform="translate(122.00 97.00) scale(0.01000 -0.01000)"/><use href="#g37" transform="translate(134.00 97.00) scale(0.01000 -0.01000)"/><use href="#g29" transform="translate(146.00 97.00) scale(0.01000 -0.01000)"/><use href="#g38" transform="translate(152.00 97.00) scale(0.01000 -0.01000)"/><use href="#g32" transform="translate(158.00 97.00) scale(0.01000 -0.01000)"/><use href="#g39" transform="translate(164.00 97.00) scale(0.01000 -0.01000)"/><use href="#g40" transform="translate(170.00 97.00) scale(0.01000 -0.01000)"/><use href="#g34" transform="translate(176.00 97.00) scale(0.01000 -0.01000)"/></g><g class="l1"><rect x="28" y="58" width="196" height="52" rx="9" fill="none" stroke="#3dba64" stroke-width="1.4"/></g><path d="M224,84.0 C268,84.0 260,148.0 304,148.0" fill="none" stroke="#333e4a" stroke-width="1.4"/><g class="f2 pm"><circle r="7.9" fill="#6ed889" opacity="0.16"><animateMotion dur="9.6s" repeatCount="indefinite" calcMode="linear" keyPoints="0;0;1;1" keyTimes="0;0.0781;0.2135;1" path="M224,84.0 C268,84.0 260,148.0 304,148.0"/></circle><circle r="3.3" fill="#6ed889"><animateMotion dur="9.6s" repeatCount="indefinite" calcMode="linear" keyPoints="0;0;1;1" keyTimes="0;0.0781;0.2135;1" path="M224,84.0 C268,84.0 260,148.0 304,148.0"/></circle></g><rect x="28" y="122" width="196" height="52" rx="9" fill="#151f2a" stroke="#333e4a" stroke-width="1.2"/><g fill="#eef2f7"><use href="#g41" transform="translate(44.00 145.00) scale(0.00659 -0.00659)"/><use href="#g24" transform="translate(54.11 145.00) scale(0.00659 -0.00659)"/><use href="#g42" transform="translate(62.09 145.00) scale(0.00659 -0.00659)"/><use href="#g43" transform="translate(74.25 145.00) scale(0.00659 -0.00659)"/><use href="#g44" transform="translate(77.78 145.00) scale(0.00659 -0.00659)"/><use href="#g43" transform="translate(86.04 145.00) scale(0.00659 -0.00659)"/><use href="#g19" transform="translate(92.98 145.00) scale(0.00659 -0.00659)"/><use href="#g45" transform="translate(102.92 145.00) scale(0.00659 -0.00659)"/><use href="#g46" transform="translate(110.56 145.00) scale(0.00659 -0.00659)"/></g><g fill="#89939e"><use href="#g26" transform="translate(44.00 161.00) scale(0.01000 -0.01000)"/><use href="#g38" transform="translate(50.00 161.00) scale(0.01000 -0.01000)"/><use href="#g32" transform="translate(56.00 161.00) scale(0.01000 -0.01000)"/><use href="#g47" transform="translate(62.00 161.00) scale(0.01000 -0.01000)"/><use href="#g36" transform="translate(68.00 161.00) scale(0.01000 -0.01000)"/><use href="#g39" transform="translate(74.00 161.00) scale(0.01000 -0.01000)"/><use href="#g36" transform="translate(80.00 161.00) scale(0.01000 -0.01000)"/><use href="#g33" transform="translate(86.00 161.00) scale(0.01000 -0.01000)"/><use href="#g34" transform="translate(92.00 161.00) scale(0.01000 -0.01000)"/><use href="#g35" transform="translate(98.00 161.00) scale(0.01000 -0.01000)"/><use href="#g36" transform="translate(104.00 161.00) scale(0.01000 -0.01000)"/><use href="#g28" transform="translate(110.00 161.00) scale(0.01000 -0.01000)"/><use href="#g28" transform="translate(116.00 161.00) scale(0.01000 -0.01000)"/><use href="#g34" transform="translate(122.00 161.00) scale(0.01000 -0.01000)"/></g><g class="l3"><rect x="28" y="122" width="196" height="52" rx="9" fill="none" stroke="#3dba64" stroke-width="1.4"/></g><path d="M224,148.0 C268,148.0 260,148.0 304,148.0" fill="none" stroke="#333e4a" stroke-width="1.4"/><g class="f4 pm"><circle r="7.9" fill="#6ed889" opacity="0.16"><animateMotion dur="9.6s" repeatCount="indefinite" calcMode="linear" keyPoints="0;0;1;1" keyTimes="0;0.3385;0.4740;1" path="M224,148.0 C268,148.0 260,148.0 304,148.0"/></circle><circle r="3.3" fill="#6ed889"><animateMotion dur="9.6s" repeatCount="indefinite" calcMode="linear" keyPoints="0;0;1;1" keyTimes="0;0.3385;0.4740;1" path="M224,148.0 C268,148.0 260,148.0 304,148.0"/></circle></g><rect x="28" y="186" width="196" height="52" rx="9" fill="#151f2a" stroke="#333e4a" stroke-width="1.2"/><g fill="#eef2f7"><use href="#g19" transform="translate(44.00 209.00) scale(0.00659 -0.00659)"/><use href="#g25" transform="translate(53.95 209.00) scale(0.00659 -0.00659)"/><use href="#g23" transform="translate(62.17 209.00) scale(0.00659 -0.00659)"/><use href="#g24" transform="translate(70.59 209.00) scale(0.00659 -0.00659)"/><use href="#g48" transform="translate(78.57 209.00) scale(0.00659 -0.00659)"/></g><g fill="#89939e"><use href="#g26" transform="translate(44.00 225.00) scale(0.01000 -0.01000)"/><use href="#g29" transform="translate(50.00 225.00) scale(0.01000 -0.01000)"/><use href="#g38" transform="translate(56.00 225.00) scale(0.01000 -0.01000)"/><use href="#g32" transform="translate(62.00 225.00) scale(0.01000 -0.01000)"/><use href="#g39" transform="translate(68.00 225.00) scale(0.01000 -0.01000)"/><use href="#g40" transform="translate(74.00 225.00) scale(0.01000 -0.01000)"/><use href="#g34" transform="translate(80.00 225.00) scale(0.01000 -0.01000)"/><use href="#g33" transform="translate(86.00 225.00) scale(0.01000 -0.01000)"/><use href="#g34" transform="translate(92.00 225.00) scale(0.01000 -0.01000)"/><use href="#g35" transform="translate(98.00 225.00) scale(0.01000 -0.01000)"/><use href="#g36" transform="translate(104.00 225.00) scale(0.01000 -0.01000)"/><use href="#g28" transform="translate(110.00 225.00) scale(0.01000 -0.01000)"/><use href="#g28" transform="translate(116.00 225.00) scale(0.01000 -0.01000)"/><use href="#g34" transform="translate(122.00 225.00) scale(0.01000 -0.01000)"/></g><g class="l5"><rect x="28" y="186" width="196" height="52" rx="9" fill="none" stroke="#3dba64" stroke-width="1.4"/></g><path d="M224,212.0 C268,212.0 260,148.0 304,148.0" fill="none" stroke="#333e4a" stroke-width="1.4"/><g class="f6 pm"><circle r="7.9" fill="#6ed889" opacity="0.16"><animateMotion dur="9.6s" repeatCount="indefinite" calcMode="linear" keyPoints="0;0;1;1" keyTimes="0;0.5990;0.7344;1" path="M224,212.0 C268,212.0 260,148.0 304,148.0"/></circle><circle r="3.3" fill="#6ed889"><animateMotion dur="9.6s" repeatCount="indefinite" calcMode="linear" keyPoints="0;0;1;1" keyTimes="0;0.5990;0.7344;1" path="M224,212.0 C268,212.0 260,148.0 304,148.0"/></circle></g><rect x="304" y="58" width="250" height="180" rx="10" fill="#29343f" stroke="#434e5b" stroke-width="1.2"/><g fill="#eef2f7"><use href="#g49" transform="translate(322.00 83.00) scale(0.00659 -0.00659)"/><use href="#g50" transform="translate(326.77 83.00) scale(0.00659 -0.00659)"/><use href="#g21" transform="translate(332.12 83.00) scale(0.00659 -0.00659)"/><use href="#g51" transform="translate(339.88 83.00) scale(0.00659 -0.00659)"/><use href="#g52" transform="translate(347.74 83.00) scale(0.00659 -0.00659)"/><use href="#g53" transform="translate(355.43 83.00) scale(0.00659 -0.00659)"/><use href="#g54" transform="translate(366.24 83.00) scale(0.00659 -0.00659)"/><use href="#g53" transform="translate(373.95 83.00) scale(0.00659 -0.00659)"/><use href="#g24" transform="translate(381.37 83.00) scale(0.00659 -0.00659)"/><use href="#g53" transform="translate(389.35 83.00) scale(0.00659 -0.00659)"/><use href="#g53" transform="translate(396.76 83.00) scale(0.00659 -0.00659)"/><use href="#g43" transform="translate(404.18 83.00) scale(0.00659 -0.00659)"/><use href="#g25" transform="translate(407.71 83.00) scale(0.00659 -0.00659)"/><use href="#g44" transform="translate(415.93 83.00) scale(0.00659 -0.00659)"/><use href="#g53" transform="translate(424.19 83.00) scale(0.00659 -0.00659)"/><use href="#g54" transform="translate(435.01 83.00) scale(0.00659 -0.00659)"/><use href="#g55" transform="translate(442.72 83.00) scale(0.00659 -0.00659)"/><use href="#g56" transform="translate(452.78 83.00) scale(0.00659 -0.00659)"/><use href="#g57" transform="translate(466.27 83.00) scale(0.00659 -0.00659)"/><use href="#g58" transform="translate(471.98 83.00) scale(0.00659 -0.00659)"/></g><path d="M322,93 H536" stroke="#333e4a" stroke-width="1"/><g fill="#b0b8c1"><use href="#g32" transform="translate(322.00 116.00) scale(0.01150 -0.01150)"/><use href="#g59" transform="translate(328.90 116.00) scale(0.01150 -0.01150)"/><use href="#g60" transform="translate(335.80 116.00) scale(0.01150 -0.01150)"/><use href="#g32" transform="translate(342.70 116.00) scale(0.01150 -0.01150)"/><use href="#g61" transform="translate(349.60 116.00) scale(0.01150 -0.01150)"/><use href="#g36" transform="translate(356.50 116.00) scale(0.01150 -0.01150)"/><use href="#g47" transform="translate(363.40 116.00) scale(0.01150 -0.01150)"/><use href="#g32" transform="translate(370.30 116.00) scale(0.01150 -0.01150)"/><use href="#g39" transform="translate(377.20 116.00) scale(0.01150 -0.01150)"/><use href="#g40" transform="translate(384.10 116.00) scale(0.01150 -0.01150)"/><use href="#g62" transform="translate(391.00 116.00) scale(0.01150 -0.01150)"/><use href="#g31" transform="translate(397.90 116.00) scale(0.01150 -0.01150)"/><use href="#g32" transform="translate(404.80 116.00) scale(0.01150 -0.01150)"/><use href="#g34" transform="translate(411.70 116.00) scale(0.01150 -0.01150)"/><use href="#g36" transform="translate(418.60 116.00) scale(0.01150 -0.01150)"/><use href="#g38" transform="translate(425.50 116.00) scale(0.01150 -0.01150)"/><use href="#g39" transform="translate(432.40 116.00) scale(0.01150 -0.01150)"/><use href="#g32" transform="translate(439.30 116.00) scale(0.01150 -0.01150)"/><use href="#g61" transform="translate(446.20 116.00) scale(0.01150 -0.01150)"/></g><g fill="#b0b8c1"><use href="#g32" transform="translate(322.00 136.00) scale(0.01150 -0.01150)"/><use href="#g59" transform="translate(328.90 136.00) scale(0.01150 -0.01150)"/><use href="#g60" transform="translate(335.80 136.00) scale(0.01150 -0.01150)"/><use href="#g32" transform="translate(342.70 136.00) scale(0.01150 -0.01150)"/><use href="#g61" transform="translate(349.60 136.00) scale(0.01150 -0.01150)"/><use href="#g36" transform="translate(356.50 136.00) scale(0.01150 -0.01150)"/><use href="#g47" transform="translate(363.40 136.00) scale(0.01150 -0.01150)"/><use href="#g32" transform="translate(370.30 136.00) scale(0.01150 -0.01150)"/><use href="#g39" transform="translate(377.20 136.00) scale(0.01150 -0.01150)"/><use href="#g40" transform="translate(384.10 136.00) scale(0.01150 -0.01150)"/><use href="#g62" transform="translate(391.00 136.00) scale(0.01150 -0.01150)"/><use href="#g61" transform="translate(397.90 136.00) scale(0.01150 -0.01150)"/><use href="#g30" transform="translate(404.80 136.00) scale(0.01150 -0.01150)"/><use href="#g39" transform="translate(411.70 136.00) scale(0.01150 -0.01150)"/><use href="#g39" transform="translate(418.60 136.00) scale(0.01150 -0.01150)"/><use href="#g32" transform="translate(425.50 136.00) scale(0.01150 -0.01150)"/><use href="#g61" transform="translate(432.40 136.00) scale(0.01150 -0.01150)"/></g><g fill="#b0b8c1"><use href="#g33" transform="translate(322.00 156.00) scale(0.01150 -0.01150)"/><use href="#g31" transform="translate(328.90 156.00) scale(0.01150 -0.01150)"/><use href="#g29" transform="translate(335.80 156.00) scale(0.01150 -0.01150)"/><use href="#g40" transform="translate(342.70 156.00) scale(0.01150 -0.01150)"/><use href="#g29" transform="translate(349.60 156.00) scale(0.01150 -0.01150)"/><use href="#g34" transform="translate(356.50 156.00) scale(0.01150 -0.01150)"/><use href="#g32" transform="translate(363.40 156.00) scale(0.01150 -0.01150)"/><use href="#g40" transform="translate(370.30 156.00) scale(0.01150 -0.01150)"/><use href="#g62" transform="translate(377.20 156.00) scale(0.01150 -0.01150)"/><use href="#g31" transform="translate(384.10 156.00) scale(0.01150 -0.01150)"/><use href="#g32" transform="translate(391.00 156.00) scale(0.01150 -0.01150)"/><use href="#g34" transform="translate(397.90 156.00) scale(0.01150 -0.01150)"/><use href="#g36" transform="translate(404.80 156.00) scale(0.01150 -0.01150)"/><use href="#g38" transform="translate(411.70 156.00) scale(0.01150 -0.01150)"/><use href="#g39" transform="translate(418.60 156.00) scale(0.01150 -0.01150)"/></g><g fill="#b0b8c1"><use href="#g33" transform="translate(322.00 176.00) scale(0.01150 -0.01150)"/><use href="#g61" transform="translate(328.90 176.00) scale(0.01150 -0.01150)"/><use href="#g32" transform="translate(335.80 176.00) scale(0.01150 -0.01150)"/><use href="#g60" transform="translate(342.70 176.00) scale(0.01150 -0.01150)"/><use href="#g63" transform="translate(349.60 176.00) scale(0.01150 -0.01150)"/><use href="#g61" transform="translate(356.50 176.00) scale(0.01150 -0.01150)"/><use href="#g40" transform="translate(363.40 176.00) scale(0.01150 -0.01150)"/><use href="#g62" transform="translate(370.30 176.00) scale(0.01150 -0.01150)"/><use href="#g27" transform="translate(377.20 176.00) scale(0.01150 -0.01150)"/><use href="#g30" transform="translate(384.10 176.00) scale(0.01150 -0.01150)"/><use href="#g61" transform="translate(391.00 176.00) scale(0.01150 -0.01150)"/><use href="#g29" transform="translate(397.90 176.00) scale(0.01150 -0.01150)"/><use href="#g40" transform="translate(404.80 176.00) scale(0.01150 -0.01150)"/><use href="#g63" transform="translate(411.70 176.00) scale(0.01150 -0.01150)"/><use href="#g61" transform="translate(418.60 176.00) scale(0.01150 -0.01150)"/></g><g fill="#b0b8c1"><use href="#g33" transform="translate(322.00 196.00) scale(0.01150 -0.01150)"/><use href="#g36" transform="translate(328.90 196.00) scale(0.01150 -0.01150)"/><use href="#g39" transform="translate(335.80 196.00) scale(0.01150 -0.01150)"/><use href="#g64" transform="translate(342.70 196.00) scale(0.01150 -0.01150)"/><use href="#g63" transform="translate(349.60 196.00) scale(0.01150 -0.01150)"/><use href="#g61" transform="translate(356.50 196.00) scale(0.01150 -0.01150)"/><use href="#g47" transform="translate(363.40 196.00) scale(0.01150 -0.01150)"/><use href="#g29" transform="translate(370.30 196.00) scale(0.01150 -0.01150)"/><use href="#g40" transform="translate(377.20 196.00) scale(0.01150 -0.01150)"/><use href="#g36" transform="translate(384.10 196.00) scale(0.01150 -0.01150)"/><use href="#g63" transform="translate(391.00 196.00) scale(0.01150 -0.01150)"/><use href="#g39" transform="translate(397.90 196.00) scale(0.01150 -0.01150)"/><use href="#g62" transform="translate(404.80 196.00) scale(0.01150 -0.01150)"/><use href="#g27" transform="translate(411.70 196.00) scale(0.01150 -0.01150)"/><use href="#g29" transform="translate(418.60 196.00) scale(0.01150 -0.01150)"/><use href="#g60" transform="translate(425.50 196.00) scale(0.01150 -0.01150)"/><use href="#g40" transform="translate(432.40 196.00) scale(0.01150 -0.01150)"/><use href="#g30" transform="translate(439.30 196.00) scale(0.01150 -0.01150)"/><use href="#g61" transform="translate(446.20 196.00) scale(0.01150 -0.01150)"/><use href="#g32" transform="translate(453.10 196.00) scale(0.01150 -0.01150)"/></g><g fill="#b0b8c1"><use href="#g33" transform="translate(322.00 216.00) scale(0.01150 -0.01150)"/><use href="#g34" transform="translate(328.90 216.00) scale(0.01150 -0.01150)"/><use href="#g65" transform="translate(335.80 216.00) scale(0.01150 -0.01150)"/><use href="#g63" transform="translate(342.70 216.00) scale(0.01150 -0.01150)"/><use href="#g66" transform="translate(349.60 216.00) scale(0.01150 -0.01150)"/><use href="#g27" transform="translate(356.50 216.00) scale(0.01150 -0.01150)"/><use href="#g29" transform="translate(363.40 216.00) scale(0.01150 -0.01150)"/><use href="#g34" transform="translate(370.30 216.00) scale(0.01150 -0.01150)"/><use href="#g32" transform="translate(377.20 216.00) scale(0.01150 -0.01150)"/></g><path d="M554,148.0 H625" fill="none" stroke="#333e4a" stroke-width="1.4"/><path d="M621.0,148.0 h8.0 m-4.2,-3.4 l4.2,3.4 l-4.2,3.4" fill="none" stroke="#333e4a" stroke-width="1.4" stroke-linecap="round" stroke-linejoin="round"/><g class="f7 pm"><circle r="7.9" fill="#6ed889" opacity="0.16"><animateMotion dur="9.6s" repeatCount="indefinite" calcMode="linear" keyPoints="0;0;1;1" keyTimes="0;0.2188;0.2917;1" path="M554,148.0 H625"/></circle><circle r="3.3" fill="#6ed889"><animateMotion dur="9.6s" repeatCount="indefinite" calcMode="linear" keyPoints="0;0;1;1" keyTimes="0;0.2188;0.2917;1" path="M554,148.0 H625"/></circle></g><g class="f8 pm"><circle r="7.9" fill="#6ed889" opacity="0.16"><animateMotion dur="9.6s" repeatCount="indefinite" calcMode="linear" keyPoints="0;0;1;1" keyTimes="0;0.4792;0.5521;1" path="M554,148.0 H625"/></circle><circle r="3.3" fill="#6ed889"><animateMotion dur="9.6s" repeatCount="indefinite" calcMode="linear" keyPoints="0;0;1;1" keyTimes="0;0.4792;0.5521;1" path="M554,148.0 H625"/></circle></g><g class="f9 pm"><circle r="7.9" fill="#6ed889" opacity="0.16"><animateMotion dur="9.6s" repeatCount="indefinite" calcMode="linear" keyPoints="0;0;1;1" keyTimes="0;0.7396;0.8125;1" path="M554,148.0 H625"/></circle><circle r="3.3" fill="#6ed889"><animateMotion dur="9.6s" repeatCount="indefinite" calcMode="linear" keyPoints="0;0;1;1" keyTimes="0;0.7396;0.8125;1" path="M554,148.0 H625"/></circle></g><rect x="634" y="110" width="218" height="76" rx="9" fill="#151f2a" stroke="#333e4a" stroke-width="1.2"/><g fill="#eef2f7"><use href="#g20" transform="translate(652.00 138.00) scale(0.00659 -0.00659)"/><use href="#g24" transform="translate(655.53 138.00) scale(0.00659 -0.00659)"/><use href="#g44" transform="translate(663.52 138.00) scale(0.00659 -0.00659)"/><use href="#g53" transform="translate(671.78 138.00) scale(0.00659 -0.00659)"/><use href="#g43" transform="translate(679.19 138.00) scale(0.00659 -0.00659)"/><use href="#g44" transform="translate(682.72 138.00) scale(0.00659 -0.00659)"/><use href="#g67" transform="translate(690.98 138.00) scale(0.00659 -0.00659)"/><use href="#g68" transform="translate(699.43 138.00) scale(0.00659 -0.00659)"/><use href="#g53" transform="translate(705.71 138.00) scale(0.00659 -0.00659)"/><use href="#g24" transform="translate(713.13 138.00) scale(0.00659 -0.00659)"/><use href="#g50" transform="translate(721.11 138.00) scale(0.00659 -0.00659)"/><use href="#g69" transform="translate(726.47 138.00) scale(0.00659 -0.00659)"/><use href="#g24" transform="translate(734.39 138.00) scale(0.00659 -0.00659)"/><use href="#g50" transform="translate(742.37 138.00) scale(0.00659 -0.00659)"/><use href="#g70" transform="translate(751.13 138.00) scale(0.00659 -0.00659)"/><use href="#g71" transform="translate(755.44 138.00) scale(0.00659 -0.00659)"/><use href="#g58" transform="translate(764.08 138.00) scale(0.00659 -0.00659)"/><use href="#g72" transform="translate(772.99 138.00) scale(0.00659 -0.00659)"/><use href="#g73" transform="translate(781.62 138.00) scale(0.00659 -0.00659)"/></g><g fill="#89939e"><use href="#g74" transform="translate(652.00 157.00) scale(0.01050 -0.01050)"/><use href="#g75" transform="translate(658.30 157.00) scale(0.01050 -0.01050)"/><use href="#g76" transform="translate(664.60 157.00) scale(0.01050 -0.01050)"/><use href="#g37" transform="translate(677.20 157.00) scale(0.01050 -0.01050)"/><use href="#g77" transform="translate(689.80 157.00) scale(0.01050 -0.01050)"/><use href="#g63" transform="translate(696.10 157.00) scale(0.01050 -0.01050)"/><use href="#g39" transform="translate(702.40 157.00) scale(0.01050 -0.01050)"/><use href="#g40" transform="translate(708.70 157.00) scale(0.01050 -0.01050)"/><use href="#g61" transform="translate(715.00 157.00) scale(0.01050 -0.01050)"/><use href="#g63" transform="translate(721.30 157.00) scale(0.01050 -0.01050)"/><use href="#g28" transform="translate(727.60 157.00) scale(0.01050 -0.01050)"/><use href="#g78" transform="translate(740.20 157.00) scale(0.01050 -0.01050)"/><use href="#g63" transform="translate(746.50 157.00) scale(0.01050 -0.01050)"/><use href="#g63" transform="translate(752.80 157.00) scale(0.01050 -0.01050)"/><use href="#g47" transform="translate(759.10 157.00) scale(0.01050 -0.01050)"/><use href="#g37" transform="translate(771.70 157.00) scale(0.01050 -0.01050)"/><use href="#g33" transform="translate(784.30 157.00) scale(0.01050 -0.01050)"/><use href="#g28" transform="translate(790.60 157.00) scale(0.01050 -0.01050)"/><use href="#g29" transform="translate(796.90 157.00) scale(0.01050 -0.01050)"/><use href="#g79" transform="translate(803.20 157.00) scale(0.01050 -0.01050)"/></g><g fill="#89939e"><use href="#g61" transform="translate(652.00 173.00) scale(0.01050 -0.01050)"/><use href="#g30" transform="translate(658.30 173.00) scale(0.01050 -0.01050)"/><use href="#g39" transform="translate(664.60 173.00) scale(0.01050 -0.01050)"/><use href="#g34" transform="translate(670.90 173.00) scale(0.01050 -0.01050)"/><use href="#g37" transform="translate(683.50 173.00) scale(0.01050 -0.01050)"/><use href="#g79" transform="translate(696.10 173.00) scale(0.01050 -0.01050)"/><use href="#g32" transform="translate(702.40 173.00) scale(0.01050 -0.01050)"/><use href="#g34" transform="translate(708.70 173.00) scale(0.01050 -0.01050)"/><use href="#g40" transform="translate(715.00 173.00) scale(0.01050 -0.01050)"/><use href="#g62" transform="translate(721.30 173.00) scale(0.01050 -0.01050)"/><use href="#g47" transform="translate(727.60 173.00) scale(0.01050 -0.01050)"/><use href="#g63" transform="translate(733.90 173.00) scale(0.01050 -0.01050)"/><use href="#g31" transform="translate(740.20 173.00) scale(0.01050 -0.01050)"/><use href="#g32" transform="translate(746.50 173.00) scale(0.01050 -0.01050)"/><use href="#g28" transform="translate(752.80 173.00) scale(0.01050 -0.01050)"/><use href="#g34" transform="translate(759.10 173.00) scale(0.01050 -0.01050)"/><use href="#g37" transform="translate(771.70 173.00) scale(0.01050 -0.01050)"/><use href="#g80" transform="translate(784.30 173.00) scale(0.01050 -0.01050)"/><use href="#g74" transform="translate(790.60 173.00) scale(0.01050 -0.01050)"/><use href="#g81" transform="translate(796.90 173.00) scale(0.01050 -0.01050)"/></g></g></svg>
